<svg width="20" height="20" viewBox="0 0 20 20" fill="none" xmlns="http://www.w3.org/2000/svg">
<g clip-path="url(#clip0)">
<path d="M20 9.99995C20 8.77675 19.78 7.605 19.378 6.52172L10 6.08691L0.621992 6.52168C0.220039 7.605 0 8.77675 0 9.99995C0 11.2232 0.220039 12.3949 0.621992 13.4782L10 13.913L19.378 13.4782C19.78 12.3949 20 11.2232 20 9.99995Z" fill="#D80027"/>
<path d="M10.0001 20C14.2997 20 17.9652 17.2863 19.3781 13.4783H0.62207C2.035 17.2863 5.70043 20 10.0001 20Z" fill="#6DA544"/>
<path d="M0.62207 6.52176H19.3781C17.9652 2.71375 14.2997 0 10.0001 0C5.70043 0 2.035 2.71375 0.62207 6.52176Z" fill="#338AF3"/>
<path d="M10.2173 12.8261C8.65652 12.8261 7.39121 11.5608 7.39121 10C7.39121 8.43923 8.65652 7.17392 10.2173 7.17392C10.7039 7.17392 11.1619 7.29696 11.5616 7.5136C10.9345 6.90028 10.0768 6.52173 9.13035 6.52173C7.20933 6.52173 5.6521 8.07899 5.6521 9.99997C5.6521 11.9209 7.20937 13.4782 9.13035 13.4782C10.0768 13.4782 10.9345 13.0997 11.5616 12.4863C11.1619 12.7031 10.7039 12.8261 10.2173 12.8261Z" fill="#F0F0F0"/>
<path d="M12.3911 8.04346L12.7654 9.09623L13.7746 8.61647L13.2948 9.62561L14.3476 9.99998L13.2948 10.3744L13.7746 11.3835L12.7654 10.9037L12.3911 11.9565L12.0168 10.9037L11.0076 11.3835L11.4874 10.3744L10.4346 9.99998L11.4874 9.62561L11.0076 8.61647L12.0168 9.09623L12.3911 8.04346Z" fill="#F0F0F0"/>
</g>
<defs>
<clipPath id="clip0">
<rect width="20" height="20" fill="white"/>
</clipPath>
</defs>
</svg>
