<svg width="20" height="20" viewBox="0 0 20 20" fill="none" xmlns="http://www.w3.org/2000/svg">
<path d="M16.4005 3.75672H13.1661C13.0128 3.32924 12.7327 2.95871 12.3632 2.69462C11.9938 2.43052 11.5525 2.28544 11.0984 2.27875H8.90219C8.4481 2.28544 8.00686 2.43052 7.6374 2.69462C7.26794 2.95871 6.98785 3.32924 6.83453 3.75672H3.60016C3.52765 3.75676 3.45813 3.78558 3.40685 3.83685C3.35558 3.88812 3.32676 3.95765 3.32672 4.03015V5.64469C3.32676 5.71719 3.35558 5.78672 3.40685 5.83799C3.45813 5.88926 3.52765 5.91808 3.60016 5.91812H4.01094L5.34625 16.7959C5.37117 17.045 5.48612 17.2765 5.66954 17.4468C5.85297 17.6172 6.09225 17.7148 6.3425 17.7212H13.6575C13.9078 17.7148 14.147 17.6172 14.3305 17.4468C14.5139 17.2765 14.6288 17.045 14.6538 16.7959L15.9891 5.91812H16.4005C16.473 5.91808 16.5425 5.88926 16.5938 5.83799C16.645 5.78672 16.6739 5.71719 16.6739 5.64469V4.03015C16.6739 3.95765 16.645 3.88812 16.5938 3.83685C16.5425 3.78558 16.473 3.75676 16.4005 3.75672ZM8.90219 2.82562H11.0978C11.4045 2.83061 11.7038 2.92019 11.9628 3.08449C12.2217 3.24878 12.4303 3.48141 12.5655 3.75672H7.43453C7.5697 3.48141 7.77826 3.24878 8.03724 3.08449C8.29622 2.92019 8.59554 2.83061 8.90219 2.82562ZM14.1111 16.7292C14.1024 16.8457 14.0516 16.9551 13.9683 17.037C13.8849 17.1189 13.7746 17.1677 13.658 17.1744H6.3425C6.22584 17.1677 6.11557 17.1189 6.03221 17.037C5.94885 16.9551 5.89809 16.8457 5.88938 16.7292L4.5625 5.91812H15.4375L14.1111 16.7292ZM16.1267 5.37125H3.87297V4.30359H16.127L16.1267 5.37125Z" fill="white"/>
<path d="M10 15.6137C10.2338 15.6135 10.4579 15.5205 10.6232 15.3552C10.7885 15.1899 10.8815 14.9658 10.8817 14.732V7.87262C10.8817 7.63878 10.7888 7.41451 10.6235 7.24915C10.4581 7.0838 10.2339 6.99091 10 6.99091C9.76616 6.99091 9.54189 7.0838 9.37654 7.24915C9.21118 7.41451 9.11829 7.63878 9.11829 7.87262V14.732C9.11853 14.9658 9.21151 15.1899 9.37681 15.3552C9.54211 15.5205 9.76624 15.6135 10 15.6137ZM9.66517 7.87231C9.66517 7.7835 9.70044 7.69834 9.76324 7.63554C9.82604 7.57275 9.91121 7.53747 10 7.53747C10.0888 7.53747 10.174 7.57275 10.2368 7.63554C10.2996 7.69834 10.3349 7.7835 10.3349 7.87231V14.7317C10.3349 14.8205 10.2996 14.9056 10.2368 14.9684C10.174 15.0312 10.0888 15.0665 10 15.0665C9.91121 15.0665 9.82604 15.0312 9.76324 14.9684C9.70044 14.9056 9.66517 14.8205 9.66517 14.7317V7.87231Z" fill="white"/>
<path d="M12.5715 15.6138C12.7849 15.6137 12.9909 15.536 13.1511 15.3951C13.3113 15.2541 13.4146 15.0597 13.4419 14.8481L14.305 7.97469C14.3318 7.74487 14.2668 7.51375 14.124 7.33168C13.9812 7.14961 13.7722 7.03134 13.5426 7.00265C13.313 6.97396 13.0814 7.03716 12.8982 7.17849C12.715 7.31982 12.595 7.52783 12.5645 7.75719L11.7014 14.6303C11.686 14.7536 11.697 14.8787 11.7337 14.9974C11.7705 15.1161 11.832 15.2255 11.9143 15.3186C11.9966 15.4116 12.0978 15.4861 12.2111 15.5369C12.3245 15.5878 12.4473 15.614 12.5715 15.6138ZM12.2434 14.6984L13.1067 7.82485C13.1171 7.74523 13.1561 7.67213 13.2165 7.61924C13.2769 7.56635 13.3545 7.53729 13.4348 7.5375C13.4818 7.53718 13.5283 7.547 13.5712 7.56631C13.614 7.58562 13.6522 7.61396 13.6831 7.64938C13.714 7.68398 13.7371 7.72483 13.7508 7.76916C13.7645 7.81349 13.7685 7.86025 13.7625 7.90625L12.8992 14.7797C12.8909 14.8426 12.8646 14.9018 12.8236 14.9502C12.7825 14.9986 12.7284 15.0342 12.6677 15.0527C12.607 15.0712 12.5422 15.0718 12.4811 15.0546C12.4201 15.0373 12.3653 15.0028 12.3233 14.9552C12.2924 14.9206 12.2693 14.8798 12.2556 14.8355C12.2419 14.7912 12.2379 14.7444 12.2439 14.6984H12.2434Z" fill="white"/>
<path d="M5.695 7.97423L6.55813 14.8477C6.5889 15.0768 6.70891 15.2845 6.89204 15.4256C7.07518 15.5667 7.30662 15.6298 7.53603 15.6012C7.76544 15.5725 7.97426 15.4545 8.11707 15.2726C8.25988 15.0908 8.32512 14.86 8.2986 14.6303L7.43547 7.75689C7.4047 7.52776 7.28469 7.32004 7.10156 7.17893C6.91842 7.03782 6.68698 6.97473 6.45757 7.00338C6.22816 7.03202 6.01934 7.15009 5.87653 7.33191C5.73372 7.51372 5.66848 7.74457 5.695 7.97423ZM6.31688 7.64939C6.34777 7.61397 6.38594 7.58563 6.42879 7.56632C6.47164 7.54701 6.51816 7.53719 6.56516 7.53752C6.64547 7.5373 6.7231 7.56638 6.78351 7.61931C6.84391 7.67224 6.88294 7.74537 6.89328 7.82501L7.75657 14.6984C7.76255 14.7444 7.75855 14.7911 7.74486 14.8354C7.73116 14.8797 7.70808 14.9205 7.67719 14.955C7.63519 15.0026 7.58039 15.0371 7.51932 15.0544C7.45825 15.0717 7.39349 15.0711 7.33277 15.0526C7.27205 15.0341 7.21794 14.9985 7.17689 14.9501C7.13584 14.9017 7.10958 14.8425 7.10125 14.7795L6.2375 7.90626C6.23149 7.86026 6.23548 7.8135 6.24917 7.76917C6.26287 7.72484 6.28596 7.68399 6.31688 7.64939Z" fill="white"/>
</svg>
