<svg width="14" height="16" viewBox="0 0 14 16" fill="none" xmlns="http://www.w3.org/2000/svg">
<path d="M13.4005 1.75672H10.1661C10.0128 1.32924 9.73269 0.958707 9.36323 0.694615C8.99377 0.430524 8.55253 0.285443 8.09844 0.278748H5.90219C5.4481 0.285443 5.00686 0.430524 4.6374 0.694615C4.26794 0.958707 3.98785 1.32924 3.83453 1.75672H0.600159C0.527651 1.75676 0.458125 1.78558 0.406855 1.83685C0.355584 1.88812 0.326763 1.95765 0.326721 2.03015V3.64469C0.326763 3.71719 0.355584 3.78672 0.406855 3.83799C0.458125 3.88926 0.527651 3.91808 0.600159 3.91812H1.01094L2.34625 14.7959C2.37117 15.045 2.48612 15.2765 2.66954 15.4468C2.85297 15.6172 3.09225 15.7148 3.3425 15.7212H10.6575C10.9078 15.7148 11.147 15.6172 11.3305 15.4468C11.5139 15.2765 11.6288 15.045 11.6538 14.7959L12.9891 3.91812H13.4005C13.473 3.91808 13.5425 3.88926 13.5938 3.83799C13.645 3.78672 13.6739 3.71719 13.6739 3.64469V2.03015C13.6739 1.95765 13.645 1.88812 13.5938 1.83685C13.5425 1.78558 13.473 1.75676 13.4005 1.75672V1.75672ZM5.90219 0.825623H8.09782C8.40447 0.830609 8.70379 0.92019 8.96276 1.08449C9.22174 1.24878 9.43031 1.48141 9.56547 1.75672H4.43453C4.5697 1.48141 4.77826 1.24878 5.03724 1.08449C5.29622 0.92019 5.59554 0.830609 5.90219 0.825623V0.825623ZM11.1111 14.7292C11.1024 14.8457 11.0516 14.9551 10.9683 15.037C10.8849 15.1189 10.7746 15.1677 10.658 15.1744H3.3425C3.22584 15.1677 3.11557 15.1189 3.03221 15.037C2.94885 14.9551 2.89809 14.8457 2.88938 14.7292L1.5625 3.91812H12.4375L11.1111 14.7292ZM13.1267 3.37125H0.872971V2.30359H13.127L13.1267 3.37125Z" fill="#C12020"/>
<path d="M7.00001 13.6137C7.23378 13.6135 7.45791 13.5205 7.62321 13.3552C7.78852 13.1899 7.88149 12.9658 7.88174 12.732V5.87262C7.88174 5.63878 7.78884 5.41451 7.62349 5.24915C7.45813 5.0838 7.23386 4.99091 7.00001 4.99091C6.76616 4.99091 6.54189 5.0838 6.37654 5.24915C6.21118 5.41451 6.11829 5.63878 6.11829 5.87262V12.732C6.11853 12.9658 6.21151 13.1899 6.37681 13.3552C6.54211 13.5205 6.76624 13.6135 7.00001 13.6137V13.6137ZM6.66517 5.87231C6.66517 5.7835 6.70044 5.69834 6.76324 5.63554C6.82604 5.57275 6.91121 5.53747 7.00001 5.53747C7.08882 5.53747 7.17399 5.57275 7.23678 5.63554C7.29958 5.69834 7.33486 5.7835 7.33486 5.87231V12.7317C7.33486 12.8205 7.29958 12.9056 7.23678 12.9684C7.17399 13.0312 7.08882 13.0665 7.00001 13.0665C6.91121 13.0665 6.82604 13.0312 6.76324 12.9684C6.70044 12.9056 6.66517 12.8205 6.66517 12.7317V5.87231Z" fill="#C12020"/>
<path d="M9.57154 13.6138C9.78488 13.6137 9.9909 13.536 10.1511 13.3951C10.3113 13.2541 10.4146 13.0597 10.4419 12.8481L11.305 5.97469C11.3318 5.74487 11.2668 5.51375 11.124 5.33168C10.9812 5.14961 10.7722 5.03134 10.5426 5.00265C10.313 4.97396 10.0814 5.03716 9.89818 5.17849C9.71498 5.31982 9.59504 5.52783 9.56451 5.75719L8.70139 12.6303C8.68599 12.7536 8.69702 12.8787 8.73374 12.9974C8.77045 13.1161 8.83202 13.2255 8.91433 13.3186C8.99665 13.4116 9.09783 13.4861 9.21115 13.5369C9.32447 13.5878 9.44732 13.614 9.57154 13.6138V13.6138ZM9.24342 12.6984L10.1067 5.82485C10.1171 5.74523 10.1561 5.67213 10.2165 5.61924C10.2769 5.56635 10.3545 5.53729 10.4348 5.5375C10.4818 5.53718 10.5283 5.547 10.5712 5.56631C10.614 5.58562 10.6522 5.61396 10.6831 5.64938C10.714 5.68398 10.7371 5.72483 10.7508 5.76916C10.7645 5.81349 10.7685 5.86025 10.7625 5.90625L9.8992 12.7797C9.89087 12.8426 9.86461 12.9018 9.82356 12.9502C9.78251 12.9986 9.7284 13.0342 9.66768 13.0527C9.60696 13.0712 9.54221 13.0718 9.48113 13.0546C9.42006 13.0373 9.36526 13.0028 9.32326 12.9552C9.29235 12.9206 9.26926 12.8798 9.25556 12.8355C9.24187 12.7912 9.23788 12.7444 9.24389 12.6984H9.24342Z" fill="#C12020"/>
<path d="M2.695 5.97423L3.55813 12.8477C3.5889 13.0768 3.70891 13.2845 3.89204 13.4256C4.07518 13.5667 4.30662 13.6298 4.53603 13.6012C4.76544 13.5725 4.97426 13.4545 5.11707 13.2726C5.25988 13.0908 5.32512 12.86 5.2986 12.6303L4.43547 5.75689C4.4047 5.52776 4.28469 5.32004 4.10156 5.17893C3.91842 5.03782 3.68698 4.97473 3.45757 5.00338C3.22816 5.03202 3.01934 5.15009 2.87653 5.33191C2.73372 5.51372 2.66848 5.74457 2.695 5.97423V5.97423ZM3.31688 5.64939C3.34777 5.61397 3.38594 5.58563 3.42879 5.56632C3.47164 5.54701 3.51816 5.53719 3.56516 5.53752C3.64547 5.5373 3.7231 5.56638 3.78351 5.61931C3.84391 5.67224 3.88294 5.74537 3.89328 5.82501L4.75657 12.6984C4.76255 12.7444 4.75855 12.7911 4.74486 12.8354C4.73116 12.8797 4.70808 12.9205 4.67719 12.955C4.63519 13.0026 4.58039 13.0371 4.51932 13.0544C4.45825 13.0717 4.39349 13.0711 4.33277 13.0526C4.27205 13.0341 4.21794 12.9985 4.17689 12.9501C4.13584 12.9017 4.10958 12.8425 4.10125 12.7795L3.2375 5.90626C3.23149 5.86026 3.23548 5.8135 3.24917 5.76917C3.26287 5.72484 3.28596 5.68399 3.31688 5.64939V5.64939Z" fill="#C12020"/>
</svg>
