<svg width="18" height="18" viewBox="0 0 18 18" fill="none" xmlns="http://www.w3.org/2000/svg">
<path d="M17.4727 2.11816H0.527344C0.236109 2.11816 0 2.35427 0 2.64551V5.82275C0 6.11399 0.236109 6.3501 0.527344 6.3501H1.05908V15.3545C1.05908 15.6457 1.29519 15.8818 1.58643 15.8818H16.4136C16.7048 15.8818 16.9409 15.6457 16.9409 15.3545V6.3501H17.4727C17.7639 6.3501 18 6.11399 18 5.82275V2.64551C18 2.35427 17.7639 2.11816 17.4727 2.11816ZM15.8862 14.8271H2.11377V6.3501H15.8862V14.8271ZM16.9453 5.29541H1.05469V3.17285H16.9453V5.29541Z" fill="#F4F4F4"/>
<path d="M7.94092 10.5864H10.0591C10.9338 10.5864 11.6455 9.87476 11.6455 9C11.6455 8.12524 10.9338 7.41357 10.0591 7.41357H7.94092C7.06616 7.41357 6.35449 8.12524 6.35449 9C6.35449 9.87476 7.06616 10.5864 7.94092 10.5864ZM7.94092 8.46826H10.0591C10.3523 8.46826 10.5908 8.7068 10.5908 9C10.5908 9.2932 10.3523 9.53174 10.0591 9.53174H7.94092C7.64771 9.53174 7.40918 9.2932 7.40918 9C7.40918 8.7068 7.64771 8.46826 7.94092 8.46826Z" fill="#F4F4F4"/>
</svg>
