<svg width="18" height="18" viewBox="0 0 18 18" fill="none" xmlns="http://www.w3.org/2000/svg">
<path d="M16.8043 1.35535e-06H0.756358C0.473316 -0.000534035 0.213831 0.157584 0.084446 0.409395C-0.046724 0.664596 -0.0237023 0.971909 0.143874 1.20498L6.02315 9.48707C6.02511 9.48993 6.02725 9.49261 6.02921 9.49546C6.24283 9.78386 6.3583 10.1331 6.35901 10.4922V17.2445C6.35776 17.4445 6.43629 17.6366 6.57727 17.7785C6.71826 17.9203 6.90993 17.9999 7.10981 17.9999C7.21153 17.9999 7.312 17.9796 7.40588 17.9407L10.7096 16.6809C11.0056 16.5906 11.2021 16.3113 11.2021 15.9749V10.4922C11.2027 10.1333 11.3183 9.78386 11.5318 9.49546C11.5337 9.49261 11.5359 9.48993 11.5378 9.48707L17.4169 1.20462C17.5845 0.97173 17.6075 0.664596 17.4763 0.409395C17.347 0.157584 17.0875 -0.000534035 16.8043 1.35535e-06ZM10.7951 8.95419C10.4667 9.39981 10.2891 9.93859 10.288 10.4922V15.8639L7.27274 17.0136V10.4922C7.27167 9.93859 7.0941 9.39981 6.76555 8.95419L1.05778 0.91373H16.503L10.7951 8.95419Z" fill="#FAFAFA"/>
</svg>
