<svg width="331" height="234" viewBox="0 0 331 234" fill="none" xmlns="http://www.w3.org/2000/svg">
<g clip-path="url(#clip0)">
<path d="M55.1362 149.102C45.118 158.901 43.4362 174.038 45.5568 187.346C45.6299 187.639 46.0687 187.566 46.0687 187.273C46.0687 184.275 45.9955 181.277 45.9955 178.279C46.0687 178.132 46.0687 177.986 46.1418 177.913C48.7743 176.012 51.1874 173.891 52.6499 170.966C54.3318 167.676 54.9899 163.946 56.233 160.509C56.3793 160.217 56.0137 160.29 55.7943 160.436C49.7249 164.897 47.7505 169.723 45.9955 176.231C46.0687 172.867 46.3612 169.504 47.0193 166.213C48.3355 160.071 50.968 154.001 55.3555 149.467C55.5749 149.248 55.3555 148.956 55.1362 149.102Z" fill="#A6A6A6"/>
<path d="M57.0382 150.272C58.7932 150.345 59.8169 153.051 61.2063 153.855C61.9376 154.294 62.5957 154.221 63.1076 153.563C64.4238 151.734 62.5957 149.394 60.9138 148.151C62.1569 148.663 63.1807 149.541 64.4969 149.76C65.3013 149.906 65.8863 149.614 66.1057 148.809C66.6907 146.25 63.5463 145.153 61.3526 145.08C62.3763 144.349 65.4476 142.374 63.8388 141.351C62.2301 140.4 58.6469 143.252 57.4769 144.129C55.7951 145.519 53.7476 147.566 53.6744 149.76C53.5282 152.319 55.7219 150.784 57.0382 150.272Z" fill="#DBDBDB"/>
<path d="M56.5254 150.711C58.7192 149.687 62.9604 151.149 63.3261 150.345C64.0573 148.663 60.6936 147.493 58.8654 147.274C60.5473 146.835 63.7648 146.104 63.6917 144.495C63.5454 142.521 58.7923 144.202 56.3061 146.104C53.2348 148.444 53.2348 150.711 53.7467 151.149C54.4779 151.734 56.1598 150.857 56.5254 150.711Z" fill="#EBEBEB"/>
<path d="M32.3943 148.151C42.7781 157.585 45.045 172.648 43.4362 185.957C43.3631 186.25 42.9243 186.176 42.9243 185.884C42.7781 182.886 42.7781 179.888 42.6318 176.89C42.5587 176.743 42.4856 176.597 42.4856 176.524C39.78 174.696 37.2937 172.648 35.7581 169.796C33.93 166.579 33.1987 162.923 31.7362 159.486C31.59 159.193 31.9556 159.266 32.175 159.413C38.3906 163.654 40.5843 168.407 42.5587 174.769C42.3393 171.405 41.9737 168.115 41.0962 164.751C39.5606 158.681 36.7087 152.685 32.175 148.371C31.9556 148.298 32.175 148.005 32.3943 148.151Z" fill="#A6A6A6"/>
<path d="M30.5661 149.395C28.8843 149.541 27.8605 152.32 26.5443 153.197C25.8861 153.636 25.1549 153.636 24.643 152.978C23.2536 151.15 25.0086 148.81 26.6174 147.493C25.4474 148.078 24.4236 148.956 23.1074 149.248C22.303 149.395 21.6449 149.175 21.4255 148.371C20.7674 145.885 23.8386 144.641 26.0324 144.495C24.9355 143.837 21.8643 141.936 23.3999 140.912C25.0086 139.888 28.6649 142.594 29.8349 143.471C31.5899 144.788 33.7105 146.762 33.8568 148.956C34.1493 151.296 31.8824 149.833 30.5661 149.395Z" fill="#DBDBDB"/>
<path d="M31.0781 149.76C28.8112 148.81 24.6431 150.418 24.2775 149.614C23.4731 147.932 26.8369 146.689 28.665 146.396C26.9831 146.031 23.6925 145.373 23.7656 143.764C23.8387 141.79 28.665 143.325 31.2244 145.08C34.3687 147.347 34.4419 149.614 33.93 150.053C33.1987 150.711 31.4437 149.906 31.0781 149.76Z" fill="#EBEBEB"/>
<path d="M42.9975 173.014C43.7288 177.986 44.6794 183.105 46.215 187.858C46.3613 188.297 47.0194 188.151 46.9463 187.712C46.2881 183.105 45.045 178.645 44.3138 174.038C43.6556 169.431 43.2169 164.678 43.5094 159.998C43.9481 152.246 46.0688 144.056 51.1144 137.987C51.2606 137.841 50.9681 137.621 50.895 137.768C40.8038 149.614 42.4125 164.02 42.4125 165.336C40.95 160.436 39.4875 154.879 34.0763 149.906C33.8569 149.687 33.6375 149.76 33.7106 150.126C34.6613 159.193 37.2206 163.873 42.4125 168.7C42.5588 170.162 42.7781 171.625 42.9975 173.014Z" fill="#A6A6A6"/>
<path d="M51.1875 139.376C53.0156 138.572 55.5019 140.912 57.33 141.058C58.2806 141.131 59.0119 140.766 59.1581 139.815C59.5969 137.256 56.5256 135.793 54.1125 135.281C55.6481 135.208 57.1106 135.574 58.6462 135.208C59.5237 134.989 60.0356 134.331 59.8163 133.38C59.1581 130.455 55.2825 130.894 53.0156 131.918C53.7469 130.601 55.8675 127.018 53.7469 126.799C51.5531 126.579 49.2862 131.333 48.555 132.868C47.4581 135.135 46.4344 138.353 47.4581 140.619C48.555 143.325 50.0906 140.619 51.1875 139.376Z" fill="#DBDBDB"/>
<path d="M50.8951 140.108C52.6501 137.987 57.7688 137.329 57.7688 136.305C57.6957 134.184 53.6007 134.696 51.5532 135.354C53.0888 134.038 56.0138 131.698 55.1363 130.016C54.0395 128.042 49.8713 132.21 48.2626 135.354C46.2882 139.376 47.4582 141.716 48.1895 141.936C49.2132 142.228 50.6026 140.473 50.8951 140.108Z" fill="#EBEBEB"/>
<path d="M36.343 175.719L31.8823 209.722H58.9386C58.3536 206.724 53.308 175.646 53.308 175.646L36.343 175.719Z" fill="#DBDBDB"/>
<path d="M24.8625 209.723L59.9625 209.503L95.0625 209.43L165.263 209.357L235.536 209.43L270.636 209.503L305.736 209.723L270.636 209.869L235.536 209.942L165.263 210.088L95.0625 209.942L59.9625 209.869L24.8625 209.723Z" fill="#263238"/>
<path d="M187.42 115.172C187.346 115.537 187.566 115.903 187.931 115.976C188.736 116.122 189.613 116.196 190.71 116.342C193.781 109.614 196.926 104.349 196.048 106.397C194.732 109.395 193.635 113.782 193.416 116.707C194.659 116.854 197.438 117.219 198.827 117.366C202.045 105.373 205.628 96.5981 205.189 99.3768C203.507 110.492 203.8 114.148 204.165 118.097C217.255 119.706 234.512 121.607 246.943 122.631C248.991 116.049 250.892 108.883 251.038 109.395C252.428 113.344 252.355 118.828 252.062 123.069C256.011 123.362 259.228 123.581 261.203 123.581C261.203 123.581 262.665 118.024 262.958 116.196C263.762 111.516 263.689 106.616 262.811 101.936C261.934 97.11 259.96 92.7956 258.205 88.4081C258.205 88.335 258.205 88.335 258.131 88.335C258.131 88.335 258.131 88.335 258.131 88.2618C256.888 85.1906 256.084 82.3387 255.572 79.2675V79.1944C255.28 77.0737 255.133 74.8069 255.133 72.3937C255.28 64.0575 251.55 56.5987 244.457 53.8931C232.391 41.535 215.719 47.2387 211.039 57.6225V57.6956C209.211 62.3756 207.383 68.5181 205.774 73.1981C205.774 73.1981 205.774 73.1981 205.774 73.2712C204.97 75.5381 204.311 77.4394 203.653 78.6825C199.412 87.0919 191.003 91.4794 187.42 115.172Z" fill="#263238"/>
<path d="M247.455 56.3795C251.989 59.3776 254.548 63.4726 254.768 69.6151C254.914 73.1982 254.768 76.6351 255.791 80.072C256.815 83.582 258.643 86.5801 260.471 89.5051C263.469 94.1851 265.444 98.8651 265.371 104.788C265.371 110.858 264.493 117.951 262.08 123.435H262.007C264.054 117.878 264.786 109.98 264.42 103.911C263.981 97.2564 260.837 92.8689 257.766 87.677C255.279 83.5089 253.89 78.9751 253.744 73.9295C253.671 70.9313 253.963 67.787 253.086 64.9351C252.062 61.4982 249.576 59.1582 247.089 57.0376C246.724 56.672 247.089 56.1601 247.455 56.3795Z" fill="#263238"/>
<path d="M194.805 87.3844C198.608 82.9237 202.483 79.1944 204.969 73.4906C207.236 68.2987 208.772 62.7412 211.112 57.6225C211.185 57.5494 211.258 57.5494 211.258 57.6956C207.602 66.9094 206.213 76.3425 199.778 83.8744C196.268 87.9694 192.831 91.6987 190.344 96.7444C187.712 102.009 186.323 107.567 185.591 113.563C185.591 113.782 185.299 113.709 185.299 113.563C185.299 103.837 188.882 94.4044 194.805 87.3844Z" fill="#263238"/>
<path d="M158.023 200.874C158.023 200.874 193.269 210.454 199.119 209.357C204.969 208.333 224.64 181.789 229.027 172.209C233.415 162.557 240.654 114.733 239.265 109.468C237.876 104.203 230.563 104.13 224.421 117.731C218.278 131.332 203.726 161.167 201.094 163.58C198.461 165.994 155.171 198.388 158.023 200.874Z" fill="#DD6A57"/>
<path d="M196.048 206.213C190.637 203.361 184.056 196.487 179.595 195.829C175.573 195.171 173.964 198.534 173.964 198.534C173.964 198.534 171.917 193.927 167.749 194.001C165.628 194.001 163.727 197.438 163.727 197.438C163.727 197.438 161.899 193.854 158.169 194.074C155.244 194.293 153.782 197.657 153.782 197.657C153.782 197.657 150.418 195.024 147.493 196.194C141.497 198.534 140.546 223.982 149.76 228.296C154.074 230.271 153.928 224.055 153.928 224.055C153.928 224.055 156.195 232.976 161.46 233.342C166.725 233.708 166.067 225.591 166.067 225.591C166.067 225.591 168.334 234.219 173.818 234C179.522 233.781 177.548 225.81 177.548 225.81C177.548 225.81 181.131 231.587 185.299 230.49C192.173 228.662 184.787 214.914 186.323 209.357H194.951L196.048 206.213Z" fill="#DD6A57"/>
<path d="M188.224 200.801C193.562 203.068 199.705 194.586 205.189 196.56C212.355 199.12 205.701 207.968 194.878 209.357H186.25L188.224 200.801Z" fill="#DD6A57"/>
<path d="M153.489 198.169C153.489 198.096 153.416 198.022 153.343 198.169C151.003 206.432 150.93 216.304 153.855 224.421C153.928 224.713 154.44 224.64 154.367 224.347C152.978 215.353 152.393 207.236 153.489 198.169Z" fill="#263238"/>
<path d="M163.654 197.291C163.654 197.218 163.508 197.145 163.508 197.291C161.094 205.847 161.314 216.889 165.847 225.883C165.994 226.176 166.432 226.322 166.286 225.956C163.727 219.741 162.63 205.408 163.654 197.291Z" fill="#263238"/>
<path d="M178.059 226.395C174.038 217.62 173.306 208.406 173.818 198.9C173.818 198.754 173.672 198.754 173.599 198.9C172.063 203.507 172.356 209.649 172.941 214.329C173.526 218.863 174.988 222.885 177.694 226.541C177.84 226.614 178.133 226.541 178.059 226.395Z" fill="#263238"/>
<path d="M205.627 195.902C202.117 194.732 198.534 197.511 195.536 199.119C194.586 199.631 193.635 200.216 192.538 200.509C190.198 201.24 188.443 200.801 187.419 200.143C185.811 199.119 180.692 194.001 176.962 195.683C175.792 196.194 174.476 197.291 173.818 198.388C172.721 196.341 171.259 194.147 168.772 193.708C167.602 193.489 166.579 193.781 165.628 194.513C165.189 194.878 164.751 195.317 164.385 195.756C164.092 196.194 163.727 196.633 163.507 197.145C163.507 197.145 163.507 197.145 163.507 197.072C163.507 196.999 163.434 196.999 163.434 196.926C163.361 196.853 163.361 196.706 163.288 196.633C163.142 196.414 163.069 196.194 162.922 196.048C162.776 195.902 162.63 195.683 162.484 195.536C162.337 195.39 162.118 195.317 161.972 195.317C161.899 195.317 161.899 195.39 161.972 195.463C162.118 195.536 162.264 195.683 162.337 195.829C162.484 195.975 162.557 196.194 162.703 196.341C162.849 196.487 162.922 196.706 163.069 196.853C163.142 196.926 163.215 196.999 163.288 197.145C163.288 197.218 163.361 197.218 163.361 197.291C163.361 197.364 163.434 197.364 163.507 197.438C163.581 197.511 163.654 197.438 163.654 197.438C164.019 197.145 164.312 196.706 164.677 196.341C165.043 195.902 165.409 195.536 165.921 195.171C166.798 194.513 167.822 194.22 168.919 194.439C171.186 194.878 172.575 196.853 173.745 198.608C173.745 198.681 173.818 198.681 173.818 198.681C175.061 197.584 176.231 196.414 177.913 196.121C179.741 195.829 181.496 196.706 182.959 197.657C183.69 198.096 184.421 198.608 185.152 199.119C185.737 199.631 186.396 200.143 187.054 200.582C189.906 202.337 192.977 201.021 193.781 200.655C195.317 199.997 196.779 199.193 198.242 198.315C199.704 197.438 201.24 196.56 202.995 196.414C204.531 196.268 206.212 196.706 207.236 198.023C207.748 198.681 208.479 199.997 207.017 202.922C207.017 202.922 207.017 202.995 207.09 202.995C207.821 202.118 210.161 197.438 205.627 195.902Z" fill="#263238"/>
<path d="M236.486 153.928L203.141 148.59C203.141 148.59 219.083 117.073 228.589 107.932C238.022 98.9381 242.629 108.152 241.239 122.119C239.777 137.548 236.486 153.928 236.486 153.928Z" fill="#0176E1"/>
<path d="M235.39 147.712C234.439 147.493 233.488 147.347 232.538 147.127C231.66 146.908 230.71 146.762 229.759 146.616C227.858 146.323 226.03 146.031 224.128 145.811C220.399 145.299 216.67 144.714 212.94 144.349C210.82 144.129 208.699 143.764 206.578 143.617C206.505 143.617 206.505 143.691 206.578 143.764C210.235 144.641 214.037 145.299 217.766 145.884C221.496 146.469 225.225 147.054 228.955 147.493C229.978 147.639 231.075 147.712 232.099 147.786C233.196 147.859 234.293 147.932 235.316 147.932C235.463 147.932 235.536 147.786 235.39 147.712Z" fill="#263238"/>
<path d="M217.913 209.723H306.174C306.174 209.723 269.539 118.682 250.892 105.446C245.261 101.424 236.413 100.986 230.344 109.029C225.444 115.611 211.77 141.716 211.112 151.149C210.527 160.583 217.839 169.869 217.839 169.869L217.913 209.723Z" fill="#0176E1"/>
<path d="M247.163 148.005C247.382 147.932 247.601 147.932 247.821 147.859C248.04 147.786 248.333 147.786 248.552 147.932C249.064 148.078 249.429 148.59 249.429 149.175C249.429 149.541 249.576 149.833 249.868 150.053C250.014 150.126 250.161 150.199 250.38 150.272C250.599 150.345 250.819 150.345 251.038 150.418C250.819 150.491 250.599 150.491 250.38 150.564C250.161 150.638 249.868 150.564 249.649 150.491C249.137 150.272 248.844 149.76 248.844 149.248C248.844 148.883 248.625 148.59 248.333 148.371C248.186 148.298 248.04 148.224 247.748 148.224C247.601 148.078 247.382 148.078 247.163 148.005Z" fill="#333232"/>
<path d="M213.379 148.005C213.598 147.932 213.818 147.932 214.037 147.859C214.256 147.786 214.549 147.786 214.768 147.932C215.28 148.078 215.646 148.59 215.646 149.175C215.646 149.541 215.792 149.833 216.085 150.053C216.231 150.126 216.377 150.199 216.596 150.272C216.816 150.345 217.035 150.345 217.255 150.418C217.035 150.491 216.816 150.491 216.596 150.564C216.377 150.638 216.085 150.564 215.865 150.491C215.353 150.272 215.061 149.76 215.061 149.248C215.061 148.883 214.841 148.59 214.549 148.371C214.403 148.298 214.256 148.224 213.964 148.224C213.818 148.078 213.598 148.078 213.379 148.005Z" fill="#333232"/>
<path d="M259.375 191.88C259.594 191.807 259.813 191.807 260.033 191.734C260.252 191.661 260.545 191.661 260.764 191.807C261.276 191.953 261.641 192.465 261.641 193.05C261.641 193.416 261.788 193.708 262.08 193.928C262.226 194.001 262.373 194.074 262.592 194.147C262.811 194.22 263.031 194.22 263.25 194.293C263.031 194.366 262.811 194.366 262.592 194.439C262.373 194.513 262.08 194.439 261.861 194.366C261.349 194.147 261.056 193.635 261.056 193.123C261.056 192.758 260.837 192.465 260.544 192.246C260.398 192.173 260.252 192.099 259.96 192.099C259.886 191.953 259.594 191.88 259.375 191.88Z" fill="#333232"/>
<path d="M274.658 150.418C274.877 150.345 275.096 150.345 275.316 150.272C275.535 150.199 275.828 150.199 276.047 150.345C276.559 150.491 276.925 151.003 276.925 151.588C276.925 151.954 277.071 152.246 277.363 152.466C277.51 152.539 277.656 152.612 277.875 152.685C278.095 152.758 278.314 152.758 278.533 152.831C278.314 152.904 278.095 152.904 277.875 152.978C277.656 153.051 277.363 152.978 277.144 152.904C276.632 152.685 276.34 152.173 276.34 151.661C276.34 151.296 276.12 151.003 275.828 150.784C275.681 150.711 275.535 150.638 275.243 150.638C275.096 150.491 274.877 150.418 274.658 150.418Z" fill="#333232"/>
<path d="M235.682 128.115C235.902 128.042 236.121 128.042 236.34 127.969C236.56 127.896 236.852 127.896 237.072 128.042C237.583 128.188 237.949 128.7 237.949 129.285C237.949 129.651 238.095 129.943 238.388 130.163C238.534 130.236 238.68 130.309 238.9 130.382C239.119 130.455 239.338 130.455 239.558 130.528C239.338 130.601 239.119 130.601 238.9 130.675C238.68 130.748 238.388 130.675 238.168 130.601C237.657 130.382 237.364 129.87 237.364 129.358C237.364 128.993 237.145 128.7 236.852 128.481C236.706 128.408 236.56 128.335 236.267 128.335C236.121 128.188 235.902 128.188 235.682 128.115Z" fill="#333232"/>
<path d="M259.667 127.603C259.886 127.53 260.106 127.53 260.325 127.457C260.544 127.384 260.837 127.384 261.056 127.53C261.568 127.676 261.934 128.188 261.934 128.773C261.934 129.139 262.08 129.431 262.373 129.651C262.519 129.724 262.665 129.797 262.884 129.87C263.104 129.943 263.323 129.943 263.543 130.016C263.323 130.089 263.104 130.089 262.884 130.163C262.665 130.236 262.373 130.163 262.153 130.089C261.641 129.87 261.349 129.358 261.349 128.846C261.349 128.481 261.129 128.188 260.837 127.969C260.691 127.896 260.544 127.823 260.252 127.823C260.106 127.676 259.886 127.676 259.667 127.603Z" fill="#333232"/>
<path d="M244.165 104.569C244.384 104.496 244.603 104.496 244.823 104.423C245.042 104.349 245.335 104.349 245.554 104.496C246.066 104.642 246.431 105.154 246.431 105.739C246.431 106.104 246.578 106.397 246.87 106.616C247.016 106.689 247.163 106.763 247.382 106.836C247.601 106.909 247.821 106.909 248.04 106.982C247.821 107.055 247.601 107.055 247.382 107.128C247.163 107.201 246.87 107.128 246.651 107.055C246.139 106.836 245.846 106.324 245.846 105.812C245.846 105.446 245.627 105.154 245.335 104.934C245.188 104.861 245.042 104.788 244.75 104.788C244.603 104.642 244.384 104.642 244.165 104.569Z" fill="#333232"/>
<path d="M229.759 166.359C229.978 166.286 230.198 166.286 230.417 166.213C230.637 166.14 230.929 166.14 231.148 166.286C231.66 166.432 232.026 166.944 232.026 167.529C232.026 167.895 232.172 168.187 232.465 168.407C232.611 168.48 232.757 168.553 232.977 168.626C233.196 168.699 233.415 168.699 233.635 168.772C233.415 168.846 233.196 168.846 232.977 168.919C232.757 168.992 232.465 168.919 232.245 168.846C231.733 168.626 231.441 168.114 231.441 167.602C231.441 167.237 231.222 166.944 230.929 166.725C230.783 166.652 230.637 166.579 230.344 166.579C230.198 166.432 229.978 166.432 229.759 166.359Z" fill="#333232"/>
<path d="M255.938 206.505C256.157 206.432 256.376 206.432 256.596 206.359C256.815 206.286 257.108 206.286 257.327 206.432C257.839 206.578 258.205 207.09 258.205 207.675C258.205 208.041 258.351 208.333 258.643 208.553C258.79 208.626 258.936 208.699 259.155 208.772C259.375 208.845 259.594 208.845 259.813 208.918C259.594 208.991 259.375 208.991 259.155 209.064C258.936 209.138 258.643 209.064 258.424 208.991C257.912 208.772 257.62 208.26 257.62 207.748C257.62 207.383 257.4 207.09 257.108 206.871C256.961 206.798 256.815 206.724 256.523 206.724C256.376 206.578 256.157 206.578 255.938 206.505Z" fill="#333232"/>
<path d="M243.068 184.933C243.287 184.86 243.506 184.86 243.726 184.787C243.945 184.714 244.238 184.714 244.457 184.86C244.969 185.006 245.334 185.518 245.334 186.103C245.334 186.469 245.481 186.761 245.773 186.981C245.92 187.054 246.066 187.127 246.285 187.2C246.504 187.273 246.724 187.273 246.943 187.346C246.724 187.42 246.504 187.42 246.285 187.493C246.066 187.566 245.773 187.493 245.554 187.42C245.042 187.2 244.75 186.688 244.75 186.176C244.75 185.811 244.53 185.518 244.238 185.299C244.091 185.226 243.945 185.153 243.653 185.153C243.506 185.006 243.287 185.006 243.068 184.933Z" fill="#333232"/>
<path d="M219.229 188.882C219.448 188.809 219.668 188.809 219.887 188.736C220.107 188.663 220.399 188.663 220.618 188.809C221.13 188.955 221.496 189.467 221.496 190.052C221.496 190.418 221.642 190.71 221.935 190.93C222.081 191.003 222.227 191.076 222.447 191.149C222.666 191.222 222.885 191.222 223.105 191.295C222.885 191.368 222.666 191.368 222.447 191.441C222.227 191.515 221.935 191.441 221.715 191.368C221.203 191.149 220.911 190.637 220.911 190.125C220.911 189.76 220.692 189.467 220.399 189.248C220.253 189.175 220.107 189.101 219.814 189.101C219.668 188.955 219.448 188.955 219.229 188.882Z" fill="#333232"/>
<path d="M254.036 166.871C254.256 166.798 254.475 166.798 254.694 166.725C254.914 166.652 255.206 166.652 255.426 166.798C255.938 166.944 256.303 167.456 256.303 168.041C256.303 168.407 256.45 168.699 256.742 168.919C256.888 168.992 257.034 169.065 257.254 169.138C257.473 169.211 257.693 169.211 257.912 169.284C257.693 169.358 257.473 169.358 257.254 169.431C257.034 169.504 256.742 169.431 256.523 169.358C256.011 169.138 255.718 168.626 255.718 168.114C255.718 167.749 255.499 167.456 255.206 167.237C255.06 167.164 254.914 167.091 254.621 167.091C254.475 166.944 254.256 166.944 254.036 166.871Z" fill="#333232"/>
<path d="M284.53 196.414C284.749 196.341 284.968 196.341 285.188 196.268C285.407 196.194 285.7 196.194 285.919 196.341C286.431 196.487 286.796 196.999 286.796 197.584C286.796 197.949 286.943 198.242 287.235 198.461C287.381 198.534 287.528 198.608 287.747 198.681C287.966 198.754 288.186 198.754 288.405 198.827C288.186 198.9 287.966 198.9 287.747 198.973C287.528 199.046 287.235 198.973 287.016 198.9C286.504 198.681 286.211 198.169 286.211 197.657C286.211 197.291 285.992 196.999 285.7 196.779C285.553 196.706 285.407 196.633 285.115 196.633C284.968 196.56 284.749 196.487 284.53 196.414Z" fill="#333232"/>
<path d="M272.391 178.425C272.61 178.352 272.83 178.352 273.049 178.279C273.268 178.206 273.561 178.206 273.78 178.352C274.292 178.498 274.658 179.01 274.658 179.595C274.658 179.961 274.804 180.253 275.096 180.472C275.243 180.546 275.389 180.619 275.608 180.692C275.828 180.765 276.047 180.765 276.266 180.838C276.047 180.911 275.828 180.911 275.608 180.984C275.389 181.057 275.096 180.984 274.877 180.911C274.365 180.692 274.073 180.18 274.073 179.668C274.073 179.302 273.853 179.01 273.561 178.791C273.415 178.717 273.268 178.644 272.976 178.644C272.903 178.498 272.61 178.425 272.391 178.425Z" fill="#333232"/>
<path d="M298.131 204.677C298.35 204.604 298.57 204.604 298.789 204.531C299.008 204.458 299.301 204.458 299.52 204.604C300.032 204.75 300.398 205.262 300.398 205.847C300.398 206.213 300.544 206.505 300.836 206.724C300.983 206.798 301.129 206.871 301.348 206.944C301.568 207.017 301.787 207.017 302.006 207.09C301.787 207.163 301.568 207.163 301.348 207.236C301.129 207.309 300.836 207.236 300.617 207.163C300.105 206.944 299.813 206.432 299.813 205.92C299.813 205.554 299.593 205.262 299.301 205.043C299.155 204.969 299.008 204.896 298.716 204.896C298.57 204.75 298.35 204.75 298.131 204.677Z" fill="#333232"/>
<path d="M237.73 140.546C237.583 140.766 237.51 140.912 237.364 141.131C237.218 141.278 237.072 141.497 236.779 141.643C236.267 141.863 235.682 141.79 235.317 141.351C235.097 141.058 234.732 140.985 234.366 141.058C234.147 141.131 234 141.205 233.854 141.351C233.635 141.497 233.488 141.643 233.269 141.716C233.415 141.497 233.488 141.351 233.635 141.131C233.781 140.985 234 140.766 234.22 140.693C234.732 140.473 235.317 140.62 235.682 140.985C235.902 141.205 236.267 141.351 236.633 141.205C236.852 141.131 236.998 141.058 237.145 140.912C237.364 140.766 237.51 140.693 237.73 140.546Z" fill="#333232"/>
<path d="M228.882 125.702C228.735 125.921 228.662 126.068 228.516 126.287C228.37 126.433 228.223 126.653 227.931 126.799C227.419 127.018 226.834 126.945 226.468 126.506C226.249 126.214 225.883 126.141 225.518 126.214C225.298 126.287 225.152 126.36 225.006 126.506C224.787 126.653 224.64 126.799 224.421 126.872C224.567 126.653 224.64 126.506 224.787 126.287C224.933 126.141 225.152 125.921 225.372 125.848C225.883 125.629 226.468 125.775 226.834 126.141C227.053 126.36 227.419 126.506 227.785 126.36C228.004 126.287 228.15 126.214 228.297 126.068C228.516 125.994 228.662 125.848 228.882 125.702Z" fill="#333232"/>
<path d="M273.561 166.359C273.414 166.579 273.341 166.725 273.195 166.944C273.049 167.091 272.903 167.31 272.61 167.456C272.098 167.676 271.513 167.603 271.148 167.164C270.928 166.871 270.563 166.798 270.197 166.871C269.978 166.944 269.831 167.018 269.685 167.164C269.466 167.31 269.319 167.456 269.1 167.529C269.246 167.31 269.319 167.164 269.466 166.944C269.612 166.798 269.831 166.579 270.051 166.506C270.563 166.286 271.148 166.433 271.513 166.798C271.733 167.018 272.098 167.164 272.464 167.017C272.683 166.944 272.829 166.871 272.976 166.725C273.195 166.579 273.341 166.433 273.561 166.359Z" fill="#333232"/>
<path d="M251.184 118.316C251.038 118.536 250.965 118.682 250.819 118.901C250.673 119.048 250.526 119.267 250.234 119.413C249.722 119.633 249.137 119.56 248.771 119.121C248.552 118.828 248.186 118.755 247.821 118.828C247.601 118.901 247.455 118.975 247.309 119.121C247.09 119.267 246.943 119.413 246.724 119.486C246.87 119.267 246.943 119.121 247.09 118.901C247.236 118.755 247.455 118.536 247.675 118.463C248.186 118.243 248.771 118.39 249.137 118.755C249.356 118.975 249.722 119.121 250.088 118.975C250.307 118.901 250.453 118.828 250.6 118.682C250.819 118.609 250.965 118.463 251.184 118.316Z" fill="#333232"/>
<path d="M235.682 107.421C235.536 107.64 235.463 107.786 235.316 108.006C235.17 108.152 235.024 108.371 234.731 108.518C234.22 108.737 233.635 108.664 233.269 108.225C233.05 107.933 232.684 107.859 232.318 107.933C232.099 108.006 231.953 108.079 231.806 108.225C231.587 108.371 231.441 108.518 231.221 108.591C231.368 108.371 231.441 108.225 231.587 108.006C231.733 107.859 231.953 107.64 232.172 107.567C232.684 107.348 233.269 107.494 233.635 107.859C233.854 108.079 234.22 108.225 234.585 108.079C234.805 108.006 234.951 107.933 235.097 107.786C235.316 107.64 235.536 107.494 235.682 107.421Z" fill="#333232"/>
<path d="M250.307 132.283C250.38 132.503 250.38 132.722 250.453 132.941C250.526 133.161 250.526 133.453 250.38 133.673C250.234 134.184 249.722 134.55 249.137 134.55C248.771 134.55 248.479 134.696 248.259 134.989C248.186 135.135 248.113 135.281 248.04 135.501C247.967 135.72 247.967 135.939 247.894 136.159C247.821 135.939 247.821 135.72 247.748 135.501C247.674 135.281 247.748 134.989 247.821 134.769C248.04 134.258 248.552 133.965 249.064 133.965C249.429 133.965 249.722 133.746 249.941 133.453C250.014 133.307 250.088 133.161 250.088 132.868C250.234 132.722 250.234 132.503 250.307 132.283Z" fill="#333232"/>
<path d="M245.042 171.186C245.115 171.405 245.115 171.624 245.188 171.844C245.261 172.063 245.261 172.356 245.115 172.575C244.969 173.087 244.457 173.452 243.872 173.452C243.506 173.452 243.214 173.599 242.995 173.891C242.921 174.037 242.848 174.184 242.775 174.403C242.702 174.622 242.702 174.842 242.629 175.061C242.556 174.842 242.556 174.622 242.483 174.403C242.41 174.184 242.483 173.891 242.556 173.672C242.775 173.16 243.287 172.867 243.799 172.867C244.165 172.867 244.457 172.648 244.676 172.356C244.75 172.209 244.823 172.063 244.823 171.771C244.969 171.624 244.969 171.405 245.042 171.186Z" fill="#333232"/>
<path d="M296.23 189.248C296.303 189.467 296.303 189.686 296.376 189.906C296.449 190.125 296.449 190.418 296.303 190.637C296.156 191.149 295.645 191.514 295.06 191.514C294.694 191.514 294.401 191.661 294.182 191.953C294.109 192.099 294.036 192.246 293.963 192.465C293.89 192.684 293.89 192.904 293.816 193.123C293.743 192.904 293.743 192.684 293.67 192.465C293.597 192.246 293.67 191.953 293.743 191.734C293.963 191.222 294.475 190.929 294.986 190.929C295.352 190.929 295.645 190.71 295.864 190.418C295.937 190.271 296.01 190.125 296.01 189.833C296.083 189.686 296.156 189.467 296.23 189.248Z" fill="#333232"/>
<path d="M272.464 137.621C272.537 137.841 272.537 138.06 272.61 138.279C272.683 138.499 272.683 138.791 272.537 139.011C272.391 139.523 271.879 139.888 271.294 139.888C270.928 139.888 270.636 140.034 270.416 140.327C270.343 140.473 270.27 140.619 270.197 140.839C270.124 141.058 270.124 141.278 270.051 141.497C269.978 141.278 269.978 141.058 269.905 140.839C269.831 140.619 269.905 140.327 269.978 140.108C270.197 139.596 270.709 139.303 271.221 139.303C271.586 139.303 271.879 139.084 272.098 138.791C272.171 138.645 272.245 138.499 272.245 138.206C272.391 138.06 272.464 137.841 272.464 137.621Z" fill="#333232"/>
<path d="M272.464 200.216C272.537 200.436 272.537 200.655 272.61 200.874C272.683 201.094 272.683 201.386 272.537 201.606C272.391 202.118 271.879 202.483 271.294 202.483C270.928 202.483 270.636 202.629 270.416 202.922C270.343 203.068 270.27 203.214 270.197 203.434C270.124 203.653 270.124 203.873 270.051 204.092C269.978 203.873 269.978 203.653 269.905 203.434C269.831 203.214 269.905 202.922 269.978 202.703C270.197 202.191 270.709 201.898 271.221 201.898C271.586 201.898 271.879 201.679 272.098 201.386C272.171 201.24 272.245 201.094 272.245 200.801C272.391 200.655 272.464 200.436 272.464 200.216Z" fill="#333232"/>
<path d="M284.53 164.385C284.603 164.604 284.603 164.824 284.676 165.043C284.749 165.263 284.749 165.555 284.603 165.774C284.456 166.286 283.945 166.652 283.36 166.652C282.994 166.652 282.701 166.798 282.482 167.091C282.409 167.237 282.336 167.383 282.263 167.602C282.19 167.822 282.19 168.041 282.116 168.261C282.043 168.041 282.043 167.822 281.97 167.602C281.897 167.383 281.97 167.091 282.043 166.871C282.263 166.359 282.775 166.067 283.286 166.067C283.652 166.067 283.945 165.847 284.164 165.555C284.237 165.409 284.31 165.263 284.31 164.97C284.456 164.824 284.456 164.604 284.53 164.385Z" fill="#333232"/>
<path d="M223.543 172.575C223.616 172.794 223.616 173.014 223.69 173.233C223.763 173.452 223.763 173.745 223.616 173.964C223.47 174.476 222.958 174.842 222.373 174.842C222.008 174.842 221.715 174.988 221.496 175.281C221.423 175.427 221.35 175.573 221.276 175.792C221.203 176.012 221.203 176.231 221.13 176.451C221.057 176.231 221.057 176.012 220.984 175.792C220.911 175.573 220.984 175.281 221.057 175.061C221.276 174.549 221.788 174.257 222.3 174.257C222.666 174.257 222.958 174.037 223.178 173.745C223.251 173.599 223.324 173.452 223.324 173.16C223.47 173.014 223.543 172.794 223.543 172.575Z" fill="#333232"/>
<path d="M224.786 137.621C224.86 137.841 224.86 138.06 224.933 138.279C225.006 138.499 225.006 138.791 224.86 139.011C224.713 139.523 224.201 139.888 223.616 139.888C223.251 139.888 222.958 140.034 222.739 140.327C222.666 140.473 222.593 140.619 222.52 140.839C222.446 141.058 222.446 141.278 222.373 141.497C222.3 141.278 222.3 141.058 222.227 140.839C222.154 140.619 222.227 140.327 222.3 140.108C222.52 139.596 223.031 139.303 223.543 139.303C223.909 139.303 224.201 139.084 224.421 138.791C224.494 138.645 224.567 138.499 224.567 138.206C224.64 138.06 224.713 137.841 224.786 137.621Z" fill="#333232"/>
<path d="M237.51 114.953C237.583 115.172 237.583 115.391 237.656 115.611C237.729 115.83 237.729 116.123 237.583 116.342C237.437 116.854 236.925 117.22 236.34 117.22C235.974 117.22 235.682 117.366 235.463 117.658C235.389 117.804 235.316 117.951 235.243 118.17C235.17 118.39 235.17 118.609 235.097 118.828C235.024 118.609 235.024 118.39 234.951 118.17C234.878 117.951 234.951 117.658 235.024 117.439C235.243 116.927 235.755 116.635 236.267 116.635C236.633 116.635 236.925 116.415 237.144 116.123C237.218 115.976 237.291 115.83 237.291 115.538C237.437 115.391 237.437 115.172 237.51 114.953Z" fill="#333232"/>
<path d="M234.073 150.052C234.146 150.272 234.146 150.491 234.22 150.711C234.293 150.93 234.293 151.222 234.146 151.442C234 151.954 233.488 152.319 232.903 152.319C232.538 152.319 232.245 152.466 232.026 152.758C231.953 152.904 231.88 153.051 231.806 153.27C231.733 153.489 231.733 153.709 231.66 153.928C231.587 153.709 231.587 153.489 231.514 153.27C231.441 153.051 231.514 152.758 231.587 152.539C231.806 152.027 232.318 151.734 232.83 151.734C233.196 151.734 233.488 151.515 233.708 151.222C233.781 151.076 233.854 150.93 233.854 150.637C234 150.491 234 150.272 234.073 150.052Z" fill="#333232"/>
<path d="M264.786 154.806C264.859 155.025 264.859 155.244 264.932 155.464C265.005 155.683 265.005 155.976 264.859 156.195C264.713 156.707 264.201 157.073 263.616 157.073C263.25 157.073 262.958 157.219 262.738 157.511C262.665 157.658 262.592 157.804 262.519 158.023C262.446 158.243 262.446 158.462 262.373 158.681C262.299 158.462 262.299 158.243 262.226 158.023C262.153 157.804 262.226 157.511 262.299 157.292C262.519 156.78 263.031 156.488 263.543 156.488C263.908 156.488 264.201 156.268 264.42 155.976C264.493 155.829 264.566 155.683 264.566 155.391C264.713 155.244 264.786 155.025 264.786 154.806Z" fill="#333232"/>
<path d="M236.413 194.22C236.487 194.439 236.487 194.659 236.56 194.878C236.633 195.097 236.633 195.39 236.487 195.609C236.34 196.121 235.828 196.487 235.243 196.487C234.878 196.487 234.585 196.633 234.366 196.926C234.293 197.072 234.22 197.218 234.147 197.437C234.073 197.657 234.073 197.876 234 198.096C233.927 197.876 233.927 197.657 233.854 197.437C233.781 197.218 233.854 196.926 233.927 196.706C234.147 196.194 234.658 195.902 235.17 195.902C235.536 195.902 235.828 195.682 236.048 195.39C236.121 195.244 236.194 195.097 236.194 194.805C236.34 194.659 236.34 194.439 236.413 194.22Z" fill="#333232"/>
<path d="M259.521 143.618C259.667 143.398 259.74 143.252 259.886 143.033C260.033 142.886 260.179 142.667 260.471 142.521C260.983 142.301 261.568 142.374 261.934 142.813C262.153 143.106 262.519 143.179 262.885 143.106C263.104 143.033 263.25 142.959 263.396 142.813C263.616 142.667 263.762 142.521 263.981 142.448C263.835 142.667 263.762 142.813 263.616 143.033C263.47 143.179 263.25 143.398 263.031 143.471C262.519 143.691 261.934 143.544 261.568 143.179C261.349 142.959 260.983 142.813 260.618 142.959C260.398 143.033 260.252 143.106 260.106 143.252C259.96 143.398 259.74 143.544 259.521 143.618Z" fill="#333232"/>
<path d="M241.605 159.851C241.751 159.632 241.825 159.486 241.971 159.266C242.117 159.12 242.263 158.901 242.556 158.754C243.068 158.535 243.653 158.608 244.018 159.047C244.238 159.339 244.603 159.412 244.969 159.339C245.188 159.266 245.335 159.193 245.481 159.047C245.7 158.901 245.846 158.754 246.066 158.681C245.92 158.901 245.846 159.047 245.7 159.266C245.554 159.412 245.335 159.632 245.115 159.705C244.603 159.924 244.018 159.778 243.653 159.412C243.433 159.193 243.068 159.047 242.702 159.193C242.483 159.266 242.336 159.339 242.19 159.486C241.971 159.632 241.825 159.778 241.605 159.851Z" fill="#333232"/>
<path d="M229.466 183.763C229.613 183.544 229.686 183.397 229.832 183.178C229.978 183.032 230.124 182.812 230.417 182.666C230.929 182.447 231.514 182.52 231.879 182.959C232.099 183.251 232.464 183.324 232.83 183.251C233.049 183.178 233.196 183.105 233.342 182.959C233.561 182.812 233.708 182.666 233.927 182.593C233.781 182.812 233.708 182.959 233.561 183.178C233.415 183.324 233.196 183.544 232.976 183.617C232.464 183.836 231.879 183.69 231.514 183.324C231.294 183.105 230.929 182.959 230.563 183.105C230.344 183.178 230.198 183.251 230.051 183.397C229.832 183.544 229.686 183.69 229.466 183.763Z" fill="#333232"/>
<path d="M234.731 208.626C234.878 208.406 234.951 208.26 235.097 208.041C235.243 207.894 235.39 207.675 235.682 207.529C236.194 207.309 236.779 207.382 237.145 207.821C237.364 208.114 237.73 208.187 238.095 208.114C238.315 208.041 238.461 207.967 238.607 207.821C238.826 207.675 238.973 207.529 239.192 207.456C239.046 207.675 238.973 207.821 238.826 208.041C238.68 208.187 238.461 208.406 238.241 208.479C237.73 208.699 237.145 208.552 236.779 208.187C236.56 207.967 236.194 207.821 235.828 207.967C235.609 208.041 235.463 208.114 235.316 208.26C235.097 208.406 234.951 208.552 234.731 208.626Z" fill="#333232"/>
<path d="M258.205 181.35C258.351 181.131 258.424 180.984 258.57 180.765C258.716 180.619 258.863 180.399 259.155 180.253C259.667 180.034 260.252 180.107 260.618 180.546C260.837 180.838 261.203 180.911 261.568 180.838C261.788 180.765 261.934 180.692 262.08 180.546C262.3 180.399 262.446 180.253 262.665 180.18C262.519 180.399 262.446 180.546 262.3 180.765C262.153 180.911 261.934 181.131 261.715 181.204C261.203 181.423 260.618 181.277 260.252 180.911C260.033 180.692 259.667 180.546 259.301 180.692C259.082 180.765 258.936 180.838 258.79 180.984C258.57 181.057 258.424 181.204 258.205 181.35Z" fill="#333232"/>
<path d="M274.438 191.222C274.584 191.003 274.658 190.856 274.804 190.637C274.95 190.491 275.096 190.271 275.389 190.125C275.901 189.906 276.486 189.979 276.851 190.418C277.071 190.71 277.436 190.783 277.802 190.71C278.021 190.637 278.168 190.564 278.314 190.418C278.533 190.271 278.679 190.125 278.899 190.052C278.753 190.271 278.679 190.418 278.533 190.637C278.387 190.783 278.168 191.003 277.948 191.076C277.436 191.295 276.851 191.149 276.486 190.783C276.266 190.564 275.901 190.418 275.535 190.564C275.316 190.637 275.169 190.71 275.023 190.856C274.804 191.003 274.584 191.149 274.438 191.222Z" fill="#333232"/>
<path d="M247.163 198.754C247.309 198.534 247.382 198.388 247.528 198.169C247.674 198.023 247.821 197.803 248.113 197.657C248.625 197.438 249.21 197.511 249.576 197.949C249.795 198.242 250.161 198.315 250.526 198.242C250.746 198.169 250.892 198.096 251.038 197.949C251.258 197.803 251.404 197.657 251.623 197.584C251.477 197.803 251.404 197.949 251.258 198.169C251.111 198.315 250.892 198.534 250.673 198.608C250.161 198.827 249.576 198.681 249.21 198.315C248.991 198.096 248.625 197.949 248.259 198.096C248.04 198.169 247.894 198.242 247.748 198.388C247.601 198.461 247.382 198.608 247.163 198.754Z" fill="#333232"/>
<path d="M282.263 208.626C282.409 208.406 282.482 208.26 282.628 208.041C282.775 207.894 282.921 207.675 283.213 207.529C283.725 207.309 284.31 207.382 284.676 207.821C284.895 208.114 285.261 208.187 285.626 208.114C285.846 208.041 285.992 207.967 286.138 207.821C286.358 207.675 286.504 207.529 286.723 207.456C286.577 207.675 286.504 207.821 286.358 208.041C286.211 208.187 285.992 208.406 285.773 208.479C285.261 208.699 284.676 208.552 284.31 208.187C284.091 207.967 283.725 207.821 283.36 207.967C283.14 208.041 282.994 208.114 282.848 208.26C282.628 208.406 282.482 208.552 282.263 208.626Z" fill="#333232"/>
<path d="M286.285 181.862C286.431 181.643 286.504 181.496 286.65 181.277C286.797 181.131 286.943 180.911 287.235 180.765C287.747 180.546 288.332 180.619 288.698 181.058C288.917 181.35 289.283 181.423 289.648 181.35C289.868 181.277 290.014 181.204 290.16 181.058C290.38 180.911 290.526 180.765 290.745 180.692C290.599 180.911 290.526 181.058 290.38 181.277C290.233 181.423 290.014 181.643 289.795 181.716C289.283 181.935 288.698 181.789 288.332 181.423C288.113 181.204 287.747 181.058 287.382 181.204C287.162 181.277 287.016 181.35 286.87 181.496C286.65 181.643 286.431 181.789 286.285 181.862Z" fill="#333232"/>
<path d="M222.154 202.191C222.3 201.971 222.373 201.825 222.519 201.606C222.666 201.46 222.812 201.24 223.104 201.094C223.616 200.875 224.201 200.948 224.567 201.386C224.786 201.679 225.152 201.752 225.518 201.679C225.737 201.606 225.883 201.533 226.029 201.386C226.249 201.24 226.395 201.094 226.614 201.021C226.468 201.24 226.395 201.386 226.249 201.606C226.103 201.752 225.883 201.971 225.664 202.045C225.152 202.264 224.567 202.118 224.201 201.752C223.982 201.533 223.616 201.386 223.251 201.533C223.031 201.606 222.885 201.679 222.739 201.825C222.519 201.898 222.373 202.045 222.154 202.191Z" fill="#333232"/>
<path d="M220.179 160.436C220.326 160.217 220.399 160.071 220.545 159.851C220.691 159.705 220.838 159.486 221.13 159.339C221.642 159.12 222.227 159.193 222.593 159.632C222.812 159.924 223.178 159.997 223.543 159.924C223.763 159.851 223.909 159.778 224.055 159.632C224.274 159.486 224.421 159.339 224.64 159.266C224.494 159.486 224.421 159.632 224.274 159.851C224.128 159.997 223.909 160.217 223.689 160.29C223.178 160.509 222.593 160.363 222.227 159.997C222.008 159.778 221.642 159.632 221.276 159.778C221.057 159.851 220.911 159.924 220.764 160.071C220.545 160.144 220.326 160.29 220.179 160.436Z" fill="#333232"/>
<path d="M244.018 104.716C243.726 106.105 237.583 115.1 231.367 115.027C229.32 115.027 229.027 103.985 229.027 103.985L228.808 103.18L225.883 91.8459L238.972 82.7784L240.874 81.6084C240.874 81.6084 241.459 84.7528 242.19 88.7015C242.19 88.8478 242.263 89.0672 242.263 89.2865C242.336 89.5059 242.336 89.7253 242.409 89.9447C242.556 90.5297 242.629 91.1147 242.702 91.6997C242.775 92.1384 242.848 92.5772 242.921 93.089C242.994 93.6009 243.067 94.0397 243.141 94.5515C243.799 99.2315 244.091 104.131 244.018 104.716Z" fill="#DD6A57"/>
<path d="M242.19 88.6275C239.192 97.8413 232.099 101.79 228.808 103.106L225.883 91.7719L238.972 82.7044L240.874 81.5344C240.874 81.6075 241.459 84.7519 242.19 88.6275Z" fill="#263238"/>
<path d="M209.796 75.0264C209.284 95.5745 221.496 98.207 225.883 98.2802C229.905 98.3533 243.579 98.207 246.212 77.8783C248.844 57.5495 239.484 50.822 230.344 50.0908C221.203 49.3595 210.381 54.4783 209.796 75.0264Z" fill="#DD6A57"/>
<path d="M212.94 68.8107C213.452 68.7376 213.817 68.5914 214.329 68.4451C214.841 68.2989 215.28 68.2257 215.646 67.787C215.865 67.5676 215.792 67.1289 215.572 66.9095C215.061 66.3976 214.402 66.3976 213.744 66.5439C213.086 66.6901 212.574 66.9826 212.136 67.5676C211.77 68.1526 212.282 68.8839 212.94 68.8107Z" fill="#263238"/>
<path d="M226.614 71.8089C226.103 71.8089 225.664 71.6627 225.225 71.5896C224.713 71.5164 224.274 71.4433 223.836 71.0777C223.616 70.8583 223.616 70.4196 223.763 70.2002C224.201 69.6883 224.859 69.6152 225.518 69.6883C226.249 69.7614 226.761 70.0539 227.199 70.5658C227.784 71.0777 227.273 71.8821 226.614 71.8089Z" fill="#263238"/>
<path d="M215.938 75.4652C215.938 75.3921 215.865 75.5384 215.865 75.6115C216.011 77.0009 215.938 78.6096 214.695 79.1946C214.622 79.1946 214.695 79.2677 214.695 79.2677C216.231 78.9021 216.304 76.7815 215.938 75.4652Z" fill="#263238"/>
<path d="M214.622 74.1489C212.355 74.1489 212.501 78.6096 214.549 78.6827C216.596 78.6096 216.523 74.1489 214.622 74.1489Z" fill="#263238"/>
<path d="M213.671 74.4414C213.306 74.6608 213.013 75.0996 212.574 75.1727C212.063 75.2458 211.697 74.7339 211.404 74.2952C211.404 74.2221 211.331 74.2952 211.331 74.3683C211.331 75.2458 211.624 76.1233 212.501 76.2696C213.233 76.4158 213.818 75.6114 213.964 74.8071C213.964 74.5877 213.818 74.3683 213.671 74.4414Z" fill="#263238"/>
<path d="M225.152 87.4577C224.786 87.7502 224.421 88.1889 223.909 88.2621C223.397 88.2621 222.885 88.0427 222.446 87.8233C222.373 87.8233 222.373 87.8233 222.373 87.8964C222.739 88.4814 223.47 88.774 224.128 88.7008C224.786 88.6277 225.079 88.0427 225.298 87.5308C225.298 87.3846 225.152 87.3846 225.152 87.4577Z" fill="#263238"/>
<path d="M218.132 81.827C218.132 81.827 217.986 83.9476 217.986 84.8982C217.986 84.9713 220.764 84.6057 223.69 85.4101C224.128 85.5563 224.128 85.1907 223.616 84.8982C222.593 84.3863 221.35 83.8745 218.79 84.0207C218.717 83.7282 219.083 80.8032 218.936 80.8032C218.424 80.8032 217.401 81.242 216.743 81.4613C216.962 77.0738 217.913 72.8326 218.059 68.4451C218.059 68.2988 217.839 68.2257 217.766 68.372C216.45 72.8326 216.084 77.8051 215.792 82.3388C215.792 82.8507 217.766 81.9732 218.132 81.827Z" fill="#263238"/>
<path d="M227.931 75.5381C227.565 75.3919 227.126 75.3187 226.688 75.2456C226.249 75.2456 225.81 75.2456 225.371 75.3187C224.933 75.465 224.494 75.6112 224.055 75.9037C223.69 76.1962 223.324 76.5619 223.105 77.0006L222.666 77.805L223.543 77.7319C224.128 77.6587 224.786 77.6587 225.445 77.7319C226.103 77.805 226.688 77.9512 227.273 78.39C226.98 77.7319 226.322 77.2931 225.591 77.0737C224.933 76.8544 224.201 76.7812 223.47 76.8544L223.909 77.5856C224.275 76.9275 224.86 76.4887 225.591 76.1962C226.249 75.8306 227.053 75.6844 227.931 75.5381Z" fill="#263238"/>
<path d="M225.371 79.1944C224.713 78.975 224.055 78.8287 223.47 78.4631C223.324 78.39 222.812 77.9512 222.812 77.8781C222.885 77.5856 223.031 77.22 223.178 76.9275C222.958 77.22 222.739 77.5125 222.666 77.8781C222.739 78.2437 222.958 78.5362 223.324 78.7556C223.909 79.1212 224.786 79.1944 225.371 79.1944Z" fill="#263238"/>
<path d="M220.472 84.752C220.472 84.752 221.715 86.5802 223.178 86.7995C224.859 87.092 225.079 85.5564 223.178 84.6789C222.3 84.2402 220.472 84.752 220.472 84.752Z" fill="#263238"/>
<path d="M223.251 86.7995C222.593 86.7264 222.008 86.3608 221.569 85.922C221.934 85.4101 222.739 84.8251 224.494 85.7758C224.786 86.4339 224.274 86.9457 223.251 86.7995Z" fill="#FF99BA"/>
<path d="M246.139 78.3901C242.775 78.8288 241.605 71.7357 241.605 71.7357C241.605 71.7357 234.731 72.1013 231.953 62.3026C231.953 62.3026 232.318 66.9094 235.389 70.3463C235.389 70.3463 223.178 69.6151 217.547 59.7432C217.547 59.7432 219.814 64.7888 221.861 66.5438C221.861 66.5438 216.669 65.3738 214.037 61.3519C214.037 61.3519 212.209 67.3482 210.6 69.0301C210.6 69.0301 210.088 47.7507 229.905 49.0669C229.905 49.0669 242.263 49.2863 247.163 58.8657C252.135 68.3719 246.139 78.3901 246.139 78.3901Z" fill="#263238"/>
<path d="M242.994 79.3408C242.994 79.3408 247.089 72.6864 250.087 74.0758C253.086 75.4652 250.307 84.9714 246.943 86.4339C243.579 87.8964 242.19 84.8252 242.19 84.8252L242.994 79.3408Z" fill="#DD6A57"/>
<path d="M249.21 76.7815C249.283 76.7815 249.283 76.8546 249.21 76.8546C246.87 77.9515 245.773 80.2915 245.042 82.6315C245.7 81.6809 246.65 81.169 247.894 81.9002C247.967 81.9734 247.894 82.0465 247.82 82.0465C246.797 81.9002 246.139 82.1196 245.554 82.924C245.115 83.509 244.822 84.2402 244.53 84.8984C244.457 85.1177 244.018 85.0446 244.091 84.7521V84.679C243.799 81.754 245.919 77.2934 249.21 76.7815Z" fill="#263238"/>
<path d="M244.969 85.4102C244.969 85.9221 245.481 86.3608 245.992 86.2877C246.504 86.2877 246.943 85.7758 246.87 85.2639C246.87 84.752 246.358 84.3133 245.846 84.3864C245.334 84.4595 244.969 84.8983 244.969 85.4102Z" fill="#333232"/>
<path d="M247.309 83.8014C247.309 84.1671 247.601 84.3864 247.967 84.3864C248.332 84.3864 248.552 84.0939 248.552 83.7283C248.552 83.3627 248.259 83.1433 247.894 83.1433C247.528 83.2164 247.309 83.5089 247.309 83.8014Z" fill="#333232"/>
<path d="M180.75 123.745L170.136 126.21L177.778 159.118L188.392 156.654L180.75 123.745Z" fill="#EBEBEB"/>
<path d="M154.879 36.4894C130.089 42.2663 114.66 66.9826 120.437 91.8451C126.214 116.634 150.93 132.064 175.719 126.287C200.509 120.51 215.938 95.7938 210.161 71.0044C204.458 46.1419 179.668 30.7126 154.879 36.4894ZM173.526 116.781C153.928 121.314 134.404 109.176 129.87 89.5782C125.336 69.9807 137.475 50.4563 157.073 45.9226C176.67 41.3888 196.194 53.5276 200.728 73.1251C205.262 92.7226 193.123 112.247 173.526 116.781Z" fill="#A6A6A6"/>
<path d="M195.536 195.463L188.443 197.145C185.957 197.73 183.544 196.194 182.959 193.708L173.818 154.513C173.233 152.027 174.769 149.614 177.255 149.029L184.348 147.347C186.834 146.762 189.248 148.298 189.833 150.784L198.973 189.979C199.558 192.465 198.023 194.878 195.536 195.463Z" fill="#263238"/>
<g opacity="0.3">
<path opacity="0.3" d="M200.728 73.1256C205.262 92.7231 193.123 112.247 173.526 116.781C153.928 121.315 134.404 109.176 129.87 89.5787C125.336 69.9812 137.475 50.4568 157.073 45.9231C176.67 41.3893 196.194 53.5281 200.728 73.1256Z" fill="#333232"/>
<g opacity="0.3">
<path opacity="0.3" d="M201.606 83.3625C200.728 99.0844 189.613 113.051 173.526 116.781C170.162 117.585 166.871 117.878 163.581 117.658L201.606 83.3625Z" fill="#EBEBEB"/>
<path opacity="0.3" d="M184.861 50.6757L132.796 97.6951C131.553 95.1357 130.529 92.4301 129.871 89.5782C129.067 86.2876 128.847 82.9969 128.993 79.7063L167.457 44.9719C173.673 45.4107 179.742 47.3851 184.861 50.6757Z" fill="#EBEBEB"/>
<path opacity="0.3" d="M199.705 69.6151L150.053 114.368C147.859 113.344 145.811 112.174 143.91 110.784L196.78 63.1069C197.95 65.1544 198.973 67.3482 199.705 69.6151Z" fill="#EBEBEB"/>
<path opacity="0.3" d="M188.882 53.6738L135.355 102.009C135.135 101.644 134.843 101.278 134.623 100.913L187.858 52.8694C188.224 53.0888 188.59 53.3813 188.882 53.6738Z" fill="#EBEBEB"/>
<path opacity="0.3" d="M155.318 46.3613L131.552 67.787C131.991 66.7632 132.43 65.8126 132.941 64.7888L152.246 47.3119C153.197 47.0194 154.221 46.6538 155.318 46.3613Z" fill="#EBEBEB"/>
</g>
</g>
<path d="M139.449 87.677C139.449 87.6039 139.449 87.6039 139.449 87.5307C139.303 86.7995 139.522 88.262 139.449 87.7501C139.376 87.1651 139.303 86.6532 139.23 86.0682C139.084 84.0939 139.084 82.1195 139.23 80.072C139.23 79.7795 139.303 79.487 139.303 79.2676C139.303 79.1945 139.23 79.9257 139.303 79.3407C139.303 79.1945 139.376 78.9751 139.376 78.8289C139.449 78.1707 139.596 77.5126 139.669 76.8545C139.961 75.392 140.327 74.0026 140.766 72.6132C140.912 72.2476 140.985 71.9551 141.131 71.5895C141.277 71.1507 140.912 72.1014 141.204 71.5164C141.277 71.297 141.351 71.1507 141.424 70.9314C141.716 70.2001 142.082 69.4689 142.447 68.7376C142.813 68.0064 143.252 67.202 143.764 66.4707C143.983 66.1051 144.202 65.8126 144.422 65.447C144.787 64.862 144.276 65.6664 144.568 65.3007C144.714 65.0814 144.861 64.9351 145.007 64.7157C146.323 63.0339 147.859 61.4982 149.467 60.1089C149.467 60.1089 149.833 59.8164 149.541 60.0357C149.321 60.2551 149.687 59.9626 149.687 59.8895C149.906 59.6701 150.199 59.5239 150.418 59.3045C150.93 58.9389 151.369 58.5732 151.881 58.2807C152.977 57.5495 154.074 56.8914 155.171 56.3064C156.487 55.5751 156.78 53.747 156.049 52.5039C155.244 51.1876 153.562 50.8951 152.246 51.6264C145.007 55.502 139.084 61.5714 136.086 69.2495C134.038 74.3682 133.234 79.9989 133.599 85.4832C133.672 86.7264 133.819 87.9695 134.038 89.1395C134.331 90.5289 136.159 91.4064 137.475 90.9676C139.157 90.5289 139.742 89.1395 139.449 87.677Z" fill="#333232"/>
<path d="M141.935 95.4282C142.374 96.8907 141.57 98.3532 140.107 98.7919C138.645 99.2307 137.182 98.4263 136.744 96.9638C136.305 95.5013 137.109 94.0388 138.572 93.6001C139.961 93.1613 141.497 94.0388 141.935 95.4282Z" fill="#333232"/>
<path d="M258.278 118.462C264.859 142.228 268.003 166.14 264.347 178.498C262.007 186.322 256.45 191.661 252.866 193.416C244.53 197.511 216.816 191.661 198.827 188.077C194.366 187.2 204.823 151.442 209.284 153.343C215.865 156.122 236.048 159.924 236.56 160.071C237.73 160.509 240.216 134.623 241.971 119.486C244.384 98.4262 254.475 104.715 258.278 118.462Z" fill="#DD6A57"/>
<path d="M164.166 146.542C162.192 149.76 164.751 152.685 164.751 152.685C164.751 152.685 162.045 153.928 161.022 156.634C159.852 159.705 164.166 162.922 164.166 162.922C164.166 162.922 161.68 164.75 160.875 167.675C160.071 170.747 163.947 174.549 163.947 174.549C163.947 174.549 162.557 177.547 163.727 180.545C165.628 185.737 173.965 187.419 179.23 188.589C184.495 189.759 200.509 188.004 203.58 188.004L211.185 154.294C211.185 154.294 189.028 142.52 182.667 142.009C177.109 141.643 166.36 142.959 164.166 146.542Z" fill="#DD6A57"/>
<path d="M165.116 152.173C170.893 151.222 176.743 152.027 182.52 152.465C182.666 152.465 182.666 152.685 182.52 152.685C176.743 152.173 170.893 152.758 165.116 152.465C164.97 152.465 164.897 152.246 165.116 152.173Z" fill="#263238"/>
<path d="M164.312 162.484C165.628 162.337 167.018 162.557 168.334 162.703C169.723 162.922 171.186 163.069 172.575 163.361C175.354 163.8 178.206 164.385 180.985 164.97C181.131 164.97 181.131 165.189 180.985 165.189C178.206 164.75 175.354 164.312 172.575 163.946C171.186 163.8 169.723 163.58 168.334 163.434C167.018 163.288 165.628 163.288 164.385 162.849C164.093 162.776 164.093 162.484 164.312 162.484Z" fill="#263238"/>
<path d="M164.02 174.549C165.19 174.33 166.506 174.768 167.603 174.988C168.846 175.207 170.162 175.427 171.405 175.719C173.965 176.158 176.524 176.597 179.083 176.962C179.23 176.962 179.23 177.182 179.083 177.182C176.451 176.816 173.818 176.523 171.259 176.158C169.943 175.938 168.7 175.792 167.383 175.573C166.287 175.427 164.897 175.28 163.947 174.768C163.947 174.695 163.947 174.622 164.02 174.549Z" fill="#263238"/>
<path d="M171.405 143.032C168.773 143.398 165.701 143.983 164.02 146.25C163.288 147.201 162.776 148.444 162.923 149.687C163.069 150.857 163.654 151.881 164.531 152.612C162.484 153.27 160.656 155.244 160.51 157.438C160.436 158.608 160.802 159.632 161.533 160.509C161.899 160.948 162.338 161.314 162.703 161.752C163.069 162.118 163.581 162.484 163.946 162.849C163.508 163.215 163.069 163.581 162.703 164.019C162.265 164.458 161.899 164.897 161.533 165.409C160.875 166.432 160.363 167.602 160.363 168.846C160.363 170.089 160.875 171.186 161.606 172.209C162.265 173.16 162.996 174.111 164.02 174.622C164.093 174.622 164.166 174.549 164.093 174.549C163.288 173.818 162.63 173.014 162.118 172.063C161.533 171.039 161.095 169.942 161.095 168.772C161.168 167.676 161.606 166.579 162.191 165.628C162.484 165.116 162.85 164.677 163.215 164.166C163.508 163.8 164.312 162.996 164.239 162.922C164.239 162.922 163.361 161.972 163.069 161.606C162.776 161.167 162.484 160.802 162.191 160.363C161.606 159.486 161.314 158.535 161.46 157.511C161.606 156.561 162.045 155.756 162.703 155.025C163.288 154.294 164.093 153.709 164.751 152.977C164.824 152.904 164.824 152.758 164.751 152.758C163.288 150.491 163.508 148.297 165.043 146.616C165.848 145.738 166.798 145.153 167.822 144.641C168.992 144.056 170.235 143.691 171.478 143.325C171.478 143.179 171.478 143.032 171.405 143.032Z" fill="#263238"/>
<path d="M219.887 192.172C218.351 191.66 216.67 191.441 215.061 191.075C213.452 190.71 211.843 190.417 210.235 190.052C208.626 189.759 206.944 189.394 205.335 189.101C203.726 188.809 202.191 188.443 200.582 188.224C199.046 188.004 197.511 188.15 195.975 188.297C194.44 188.443 192.904 188.589 191.295 188.662C188.151 188.809 185.006 188.736 181.862 188.443C178.352 188.151 174.842 187.492 171.405 186.542C171.332 186.542 171.332 186.615 171.405 186.688C177.328 188.662 183.617 189.686 189.833 189.613C191.368 189.613 192.977 189.54 194.513 189.394C196.048 189.247 197.584 188.955 199.193 189.028C200.875 189.028 202.483 189.467 204.092 189.759C205.701 190.052 207.31 190.344 208.918 190.637C210.746 190.929 212.575 191.295 214.403 191.587C216.231 191.88 218.059 192.245 219.887 192.392C219.96 192.465 219.96 192.245 219.887 192.172Z" fill="#263238"/>
<path d="M242.556 161.533C240.216 160.729 237.729 160.217 235.316 159.632C232.903 159.047 230.49 158.462 228.077 157.95C223.47 156.926 218.79 156.049 214.183 154.732C213.013 154.367 211.77 154.001 210.6 153.636C210.015 153.416 209.43 153.197 208.845 152.977C208.26 152.758 207.602 152.539 207.017 152.173C206.944 152.1 206.871 152.246 206.944 152.246C207.383 152.539 207.821 152.904 208.333 153.124C208.845 153.416 209.357 153.709 209.942 153.928C210.893 154.367 211.916 154.806 213.013 155.098C215.134 155.829 217.401 156.341 219.594 156.853C224.421 157.95 229.247 159.047 234.073 160.071C235.463 160.363 236.779 160.656 238.168 160.948C239.558 161.241 241.02 161.533 242.483 161.752C242.702 161.826 242.702 161.606 242.556 161.533Z" fill="#263238"/>
<path d="M234.951 152.685L268.369 157.219C268.369 157.219 262.226 122.411 255.791 110.931C249.356 99.5962 242.336 107.055 239.631 120.802C236.559 136.086 234.951 152.685 234.951 152.685Z" fill="#0176E1"/>
<path d="M265.882 152.246C264.932 152.027 263.981 151.881 263.031 151.661C262.153 151.442 261.202 151.296 260.252 151.149C258.351 150.857 256.522 150.564 254.621 150.345C250.892 149.833 247.162 149.248 243.433 148.883C241.312 148.663 239.192 148.298 237.071 148.151C236.998 148.151 236.998 148.224 237.071 148.298C240.727 149.175 244.53 149.833 248.259 150.418C251.989 151.003 255.718 151.588 259.447 152.027C260.471 152.173 261.568 152.246 262.592 152.319C263.689 152.393 264.786 152.466 265.809 152.466C265.956 152.393 265.956 152.246 265.882 152.246Z" fill="#263238"/>
<path d="M284.237 26.0325C282.921 38.3175 271.952 47.1656 259.74 45.9225C254.767 45.4106 250.38 43.29 246.943 40.1456L235.755 41.7544L241.312 32.175C239.923 28.8844 239.411 25.2281 239.777 21.4256C241.093 9.14065 252.062 0.292523 264.274 1.53565C276.632 2.8519 285.48 13.8206 284.237 26.0325Z" fill="#333232"/>
<path d="M284.237 26.0325C283.798 30.1275 282.262 34.0762 279.703 37.3669C279.118 38.2444 278.387 38.9025 277.656 39.7069C276.851 40.365 276.12 41.0962 275.316 41.6812C273.707 42.9244 271.879 43.9481 269.904 44.6794C268.003 45.4837 265.956 45.8494 263.908 46.1419C262.884 46.215 261.861 46.2881 260.837 46.215C259.813 46.215 258.789 46.0687 257.766 45.9225C253.671 45.1912 249.795 43.29 246.724 40.4381L247.016 40.5112L235.828 42.1931L235.024 42.3394L235.462 41.6081L241.02 31.9556V32.3212C238.314 25.9594 238.899 18.3544 242.409 12.4312C244.164 9.4331 246.577 6.87373 249.429 4.97248C252.281 3.07123 255.572 1.8281 258.936 1.38935C262.299 0.950604 265.809 1.2431 269.027 2.33998C272.244 3.43685 275.242 5.26498 277.656 7.60498C282.482 12.285 284.968 19.3781 284.237 26.0325ZM284.237 26.0325C284.895 19.305 282.409 12.285 277.436 7.6781C275.023 5.3381 272.025 3.5831 268.807 2.63248C265.59 1.60873 262.153 1.38935 258.862 1.90123C255.572 2.4131 252.354 3.65623 249.649 5.55748C246.943 7.45873 244.603 9.94498 242.994 12.87C241.312 15.7219 240.435 19.0125 240.142 22.3031C239.923 25.5937 240.508 28.9575 241.678 32.0287L241.751 32.2481L241.678 32.3944L236.047 42.0469L235.682 41.4619L246.87 39.9262H247.016L247.162 39.9994C250.087 42.7781 253.89 44.6794 257.839 45.4837C258.862 45.7031 259.813 45.7762 260.837 45.8494C261.861 45.9225 262.884 45.8494 263.908 45.8494C265.956 45.63 268.003 45.2644 269.904 44.5331C271.806 43.8019 273.634 42.8512 275.316 41.6081C276.193 41.0231 276.924 40.2919 277.656 39.6337C278.314 38.9025 279.118 38.1712 279.703 37.2937C282.189 34.1494 283.725 30.1275 284.237 26.0325Z" fill="#263238"/>
<path d="M251.111 34.1494C251.111 32.8331 252.062 31.8825 253.305 31.8825C254.621 31.8825 255.499 32.8331 255.499 34.1494C255.499 35.4656 254.621 36.4162 253.305 36.4162C251.989 36.4162 251.111 35.4656 251.111 34.1494ZM251.989 28.8844L251.477 11.115H255.06L254.548 28.8844H251.989Z" fill="#0176E1"/>
<path d="M259.594 34.1494C259.594 32.8331 260.544 31.8825 261.787 31.8825C263.104 31.8825 263.981 32.8331 263.981 34.1494C263.981 35.4656 263.104 36.4162 261.787 36.4162C260.471 36.4162 259.594 35.4656 259.594 34.1494ZM260.544 28.8844L260.032 11.115H263.615L263.104 28.8844H260.544Z" fill="#0176E1"/>
<path d="M268.149 34.1494C268.149 32.8331 269.1 31.8825 270.343 31.8825C271.659 31.8825 272.537 32.8331 272.537 34.1494C272.537 35.4656 271.659 36.4162 270.343 36.4162C269.027 36.4162 268.149 35.4656 268.149 34.1494ZM269.027 28.8844L268.515 11.115H272.098L271.586 28.8844H269.027Z" fill="#0176E1"/>
</g>
<defs>
<clipPath id="clip0">
<rect width="330.598" height="234" fill="white"/>
</clipPath>
</defs>
</svg>
