<svg width="20" height="20" viewBox="0 0 20 20" fill="none" xmlns="http://www.w3.org/2000/svg">
<path d="M10.0003 19.9999C15.5229 19.9999 19.9999 15.5229 19.9999 10.0003C19.9999 4.4777 15.5229 0.000732422 10.0003 0.000732422C4.47769 0.000732422 0.000732422 4.4777 0.000732422 10.0003C0.000732422 15.5229 4.47769 19.9999 10.0003 19.9999Z" fill="white"/>
<path d="M19.4284 6.66577H13.2671C13.5347 8.80193 13.5363 11.1557 13.2723 13.2945H19.4416C19.8017 12.2627 19.9997 11.1546 19.9997 10C19.9999 8.83035 19.7973 7.70867 19.4284 6.66577Z" fill="#3757A6"/>
<path d="M13.2672 6.66578H19.4284C19.4275 6.66262 19.4265 6.65996 19.4252 6.65709C18.1455 3.04845 14.8534 0.393448 10.8979 0.0410156C12.4288 0.880063 12.8759 3.5384 13.2672 6.66578Z" fill="#EFEFEF"/>
<path d="M10.8982 19.9585C14.8607 19.6054 18.1574 16.9413 19.4322 13.323C19.4356 13.3133 19.4384 13.3038 19.4419 13.2946H13.2725C12.8842 16.4389 12.4351 19.116 10.8982 19.9585Z" fill="#E73B36"/>
<path d="M0 10C0 11.1547 0.19832 12.2627 0.558141 13.2945H13.787C14.0513 11.1555 14.0494 8.80193 13.7821 6.66577H0.571441C0.202584 7.70871 0 8.83039 0 10Z" fill="#3757A6"/>
<path d="M0.574456 6.65809C0.573527 6.66092 0.572556 6.66362 0.571289 6.66678H13.782C13.3905 3.53936 12.4285 0.881064 10.8979 0.0420169C10.6019 0.0157967 10.3025 0.000976563 9.99968 0.000976563C5.64953 0.00093434 1.95019 2.77922 0.574456 6.65809Z" fill="#EFEFEF"/>
<path d="M13.787 13.2946H0.558105C0.561441 13.3039 0.564566 13.3133 0.567732 13.323C1.93798 17.2118 5.64264 19.9999 9.99975 19.9999C10.3026 19.9999 10.602 19.985 10.898 19.9585C12.4351 19.116 13.3987 16.4389 13.787 13.2946Z" fill="#E73B36"/>
</svg>
