<svg width="15" height="17" viewBox="0 0 15 17" fill="none" xmlns="http://www.w3.org/2000/svg">
<path d="M14.4901 2.83329C14.4901 4.10474 13.498 5.13546 12.2741 5.13546C11.0502 5.13546 10.0581 4.10474 10.0581 2.83329C10.0581 1.56197 11.0502 0.53125 12.2741 0.53125C13.498 0.53125 14.4901 1.56197 14.4901 2.83329Z" fill="#F4F4F4"/>
<path d="M12.2728 5.66671C10.7686 5.66671 9.54541 4.39591 9.54541 2.83329C9.54541 1.2708 10.7686 0 12.2728 0C13.777 0 15.0002 1.2708 15.0002 2.83329C15.0002 4.39591 13.777 5.66671 12.2728 5.66671ZM12.2728 1.0625C11.3325 1.0625 10.5682 1.8573 10.5682 2.83329C10.5682 3.80941 11.3325 4.60421 12.2728 4.60421C13.2131 4.60421 13.9774 3.80941 13.9774 2.83329C13.9774 1.8573 13.2131 1.0625 12.2728 1.0625Z" fill="#F4F4F4"/>
<path d="M14.4901 14.1668C14.4901 15.4381 13.498 16.4688 12.2741 16.4688C11.0502 16.4688 10.0581 15.4381 10.0581 14.1668C10.0581 12.8953 11.0502 11.8646 12.2741 11.8646C13.498 11.8646 14.4901 12.8953 14.4901 14.1668Z" fill="#F4F4F4"/>
<path d="M12.2728 17.0001C10.7686 17.0001 9.54541 15.7293 9.54541 14.1668C9.54541 12.6042 10.7686 11.3334 12.2728 11.3334C13.777 11.3334 15.0002 12.6042 15.0002 14.1668C15.0002 15.7293 13.777 17.0001 12.2728 17.0001ZM12.2728 12.3959C11.3325 12.3959 10.5682 13.1907 10.5682 14.1668C10.5682 15.1428 11.3325 15.9376 12.2728 15.9376C13.2131 15.9376 13.9774 15.1428 13.9774 14.1668C13.9774 13.1907 13.2131 12.3959 12.2728 12.3959Z" fill="#F4F4F4"/>
<path d="M4.94359 8.49931C4.94359 9.77075 3.9514 10.8013 2.72747 10.8013C1.50367 10.8013 0.511475 9.77075 0.511475 8.49931C0.511475 7.22786 1.50367 6.19727 2.72747 6.19727C3.9514 6.19727 4.94359 7.22786 4.94359 8.49931Z" fill="#F4F4F4"/>
<path d="M2.72739 11.3326C1.2233 11.3326 0 10.0619 0 8.4993C0 6.93668 1.2233 5.66602 2.72739 5.66602C4.23161 5.66602 5.45491 6.93668 5.45491 8.4993C5.45491 10.0619 4.23161 11.3326 2.72739 11.3326ZM2.72739 6.72852C1.78713 6.72852 1.02279 7.52318 1.02279 8.4993C1.02279 9.47542 1.78713 10.2701 2.72739 10.2701C3.66778 10.2701 4.43212 9.47542 4.43212 8.4993C4.43212 7.52318 3.66778 6.72852 2.72739 6.72852Z" fill="#F4F4F4"/>
<path d="M4.33684 8.15976C4.09949 8.15976 3.86901 8.03149 3.74354 7.80205C3.55738 7.46276 3.672 7.02995 3.99861 6.83579L10.3255 3.08877C10.6521 2.89396 11.0687 3.01302 11.2556 3.35361C11.4418 3.69291 11.3272 4.12572 11.0006 4.31988L4.67356 8.0669C4.56719 8.12993 4.45132 8.15976 4.33684 8.15976Z" fill="#F4F4F4"/>
<path d="M10.6636 14.0035C10.549 14.0035 10.4331 13.9737 10.3267 13.9106L3.99974 10.1636C3.67313 9.97023 3.55864 9.53742 3.74479 9.19735C3.9302 8.8574 4.34745 8.73769 4.67481 8.9325L11.0018 12.6795C11.3284 12.8729 11.4429 13.3057 11.2567 13.6458C11.1306 13.8752 10.9002 14.0035 10.6636 14.0035Z" fill="#F4F4F4"/>
</svg>
