<svg width="299" height="212" viewBox="0 0 299 212" fill="none" xmlns="http://www.w3.org/2000/svg">
<path d="M192.092 210.491C192.092 210.491 202.023 177.766 246.171 198.383C263.829 206.629 269.625 200.471 275.569 199.711C284.844 198.528 288.698 204.82 291.362 210.491H192.092Z" fill="#EDF3F9"/>
<path d="M114.16 210.491H140.872C140.872 210.491 125.738 181.595 104.624 181.314C83.1273 181.028 76.9069 195.529 67.2298 196.737C54.5933 198.314 47.7938 189.677 38.6303 190.387C20.2076 191.814 11.4265 210.491 11.4265 210.491H114.16Z" fill="#EDF3F9"/>
<path d="M189.982 20.2718H229.688C239.555 20.2718 247.555 28.2714 247.555 38.1391C247.555 48.0069 239.555 56.0065 229.688 56.0065H50.6938C38.098 56.0065 27.887 66.2175 27.887 78.8133C27.887 91.4091 38.098 101.62 50.6938 101.62H268.838C281.516 101.62 291.794 111.898 291.794 124.575C291.794 137.253 281.516 147.53 268.838 147.53H17.0048C9.74607 147.53 3.86182 153.415 3.86182 160.673C3.86182 167.932 9.74607 173.816 17.0048 173.816H87.2726" stroke="#99BFE3" stroke-width="1.33333" stroke-miterlimit="10" stroke-linejoin="round" stroke-dasharray="4.67 4.67"/>
<path d="M42.4832 118.224C42.4832 121.695 39.6698 124.508 36.1993 124.508C32.7289 124.508 29.9159 121.695 29.9159 118.224C29.9159 114.754 32.7289 111.94 36.1993 111.94C39.6698 111.94 42.4832 114.754 42.4832 118.224Z" fill="#EDF3F9"/>
<path d="M265.523 135.458C265.523 137.515 263.856 139.182 261.799 139.182C259.743 139.182 258.076 137.515 258.076 135.458C258.076 133.402 259.743 131.735 261.799 131.735C263.856 131.735 265.523 133.402 265.523 135.458Z" fill="#EDF3F9"/>
<path d="M26.0235 104.563C26.0235 106.342 24.5819 107.783 22.8042 107.783C21.026 107.783 19.5845 106.342 19.5845 104.563C19.5845 102.785 21.026 101.344 22.8042 101.344C24.5819 101.344 26.0235 102.785 26.0235 104.563Z" stroke="#99BFE3" stroke-width="1.33333" stroke-miterlimit="10" stroke-linejoin="round"/>
<path d="M255.521 46.0611C255.521 47.0094 254.752 47.7778 253.804 47.7778C252.856 47.7778 252.087 47.0094 252.087 46.0611C252.087 45.1128 252.856 44.3444 253.804 44.3444C254.752 44.3444 255.521 45.1128 255.521 46.0611Z" fill="#EDF3F9"/>
<path d="M86.9401 16.9829C86.9401 17.9312 86.1712 18.6996 85.2234 18.6996C84.2751 18.6996 83.5062 17.9312 83.5062 16.9829C83.5062 16.0346 84.2751 15.2662 85.2234 15.2662C86.1712 15.2662 86.9401 16.0346 86.9401 16.9829Z" fill="#EDF3F9"/>
<path d="M277.681 115.843C277.681 116.791 276.912 117.559 275.964 117.559C275.016 117.559 274.247 116.791 274.247 115.843C274.247 114.894 275.016 114.126 275.964 114.126C276.912 114.126 277.681 114.894 277.681 115.843Z" stroke="#99BFE3" stroke-width="1.33333" stroke-miterlimit="10" stroke-linejoin="round"/>
<path d="M35.5334 163.105C35.5334 164.053 34.7646 164.822 33.8168 164.822C32.8684 164.822 32.0996 164.053 32.0996 163.105C32.0996 162.157 32.8684 161.388 33.8168 161.388C34.7646 161.388 35.5334 162.157 35.5334 163.105Z" stroke="#99BFE3" stroke-width="1.33333" stroke-miterlimit="10" stroke-linejoin="round"/>
<path d="M262.706 170.57C262.706 171.518 261.937 172.286 260.989 172.286C260.041 172.286 259.272 171.518 259.272 170.57C259.272 169.621 260.041 168.853 260.989 168.853C261.937 168.853 262.706 169.621 262.706 170.57Z" stroke="#99BFE3" stroke-width="1.33333" stroke-miterlimit="10" stroke-linejoin="round"/>
<path d="M233.842 31.9118C233.842 33.4891 232.564 34.7674 230.986 34.7674C229.409 34.7674 228.131 33.4891 228.131 31.9118C228.131 30.3344 229.409 29.0561 230.986 29.0561C232.564 29.0561 233.842 30.3344 233.842 31.9118Z" stroke="#99BFE3" stroke-width="1.33333" stroke-miterlimit="10" stroke-linejoin="round"/>
<path d="M19.4977 152.265H28.2788" stroke="#99BFE3" stroke-width="1.33333" stroke-miterlimit="10" stroke-linejoin="round"/>
<path d="M281.31 156.648H290.091" stroke="#99BFE3" stroke-width="1.33333" stroke-miterlimit="10" stroke-linejoin="round"/>
<path d="M191.156 49.1978H204.599" stroke="#99BFE3" stroke-width="1.33333" stroke-miterlimit="10" stroke-linejoin="round"/>
<path d="M31.809 142.5H36.1993" stroke="#99BFE3" stroke-width="1.33333" stroke-miterlimit="10" stroke-linejoin="round"/>
<path d="M202.524 44.5534H206.914" stroke="#99BFE3" stroke-width="1.33333" stroke-miterlimit="10" stroke-linejoin="round"/>
<path d="M69.1886 27.5226H73.5789" stroke="#99BFE3" stroke-width="1.33333" stroke-miterlimit="10" stroke-linejoin="round"/>
<path d="M76.9092 31.9117H81.3" stroke="#99BFE3" stroke-width="1.33333" stroke-miterlimit="10" stroke-linejoin="round"/>
<path d="M43.8066 210.746C37.7485 198.995 28.6734 194.794 24.7301 188.935C23.5443 187.174 22.51 185.267 22.4312 183.297C22.3519 181.328 23.4294 179.287 25.5289 178.558C27.3326 177.932 29.4886 178.364 31.3679 179.054C37.2034 181.198 41.6547 185.678 44.3161 190.57C46.9776 195.462 49.6192 203.132 49.1819 210.746" fill="white"/>
<path d="M43.8066 210.746C37.7485 198.995 28.6734 194.794 24.7301 188.935C23.5443 187.174 22.51 185.267 22.4312 183.297C22.3519 181.328 23.4294 179.287 25.5289 178.558C27.3326 177.932 29.4886 178.364 31.3679 179.054C37.2034 181.198 41.6547 185.678 44.3161 190.57C46.9776 195.462 49.6192 203.132 49.1819 210.746" stroke="#99BFE3" stroke-width="1.33333" stroke-miterlimit="10" stroke-linejoin="round"/>
<path d="M24.0212 179.443C24.0212 179.443 42.7871 189.058 47.001 210.745" stroke="#99BFE3" stroke-width="1.33333" stroke-miterlimit="10" stroke-linejoin="round"/>
<path d="M48.5595 210.746C48.5345 199.411 45.9199 190.869 42.6559 181.02C41.0313 176.117 38.9729 171.151 37.7749 166.18C36.9038 162.567 36.192 157.988 38.2813 155.062C40.6606 151.732 45.2451 153.178 48.5951 155.405C52.5943 158.064 55.4266 162.206 57.2364 166.468C60.4358 174.005 60.9636 182.315 61.0561 190C61.1416 197.054 59.7397 204.844 58.0865 210.746" fill="white"/>
<path d="M48.5595 210.746C48.5345 199.411 45.9199 190.869 42.6559 181.02C41.0313 176.117 38.9729 171.151 37.7749 166.18C36.9038 162.567 36.192 157.988 38.2813 155.062C40.6606 151.732 45.2451 153.178 48.5951 155.405C52.5943 158.064 55.4266 162.206 57.2364 166.468C60.4358 174.005 60.9636 182.315 61.0561 190C61.1416 197.054 59.7397 204.844 58.0866 210.746" stroke="#99BFE3" stroke-width="1.33333" stroke-miterlimit="10" stroke-linejoin="round"/>
<path d="M41.9268 153.054C41.9268 153.054 56.0064 178.362 53.4624 210.746" stroke="#99BFE3" stroke-width="1.33333" stroke-miterlimit="10" stroke-linejoin="round"/>
<path d="M89.3585 210.746C88.3929 202.5 88.4788 193.474 91.2461 185.647C94.0127 177.82 99.7638 170.764 107.548 167.88C108.895 167.38 110.49 167.034 111.697 167.812C112.806 168.527 113.199 169.949 113.369 171.257C114.212 177.749 111.69 184.21 108.541 189.948C105.392 195.686 101.545 204.579 99.3494 210.746" fill="white"/>
<path d="M89.3585 210.746C88.3929 202.5 88.4788 193.474 91.2461 185.647C94.0127 177.82 99.7638 170.764 107.548 167.88C108.895 167.38 110.49 167.034 111.697 167.812C112.806 168.527 113.199 169.949 113.369 171.257C114.212 177.749 111.69 184.21 108.541 189.948C105.392 195.686 101.545 204.579 99.3494 210.746" stroke="#99BFE3" stroke-width="1.33333" stroke-miterlimit="10" stroke-linejoin="round"/>
<path d="M190.722 210.746C189.985 198.82 191.331 184.195 195.21 174.811C198.223 167.524 203.262 160.683 210.102 156.371C215.03 153.263 224.457 148.274 229.457 153.728C236.802 161.742 220.727 174.559 216.455 180.095C209.36 189.29 203.502 199.245 201.154 210.746" fill="white"/>
<path d="M190.722 210.746C189.985 198.82 191.331 184.195 195.21 174.811C198.223 167.524 203.262 160.683 210.102 156.371C215.03 153.263 224.457 148.274 229.457 153.728C236.802 161.742 220.727 174.559 216.455 180.095C209.36 189.29 203.502 199.245 201.154 210.746" stroke="#99BFE3" stroke-width="1.33333" stroke-miterlimit="10" stroke-linejoin="round"/>
<path d="M174.905 210.746C174.071 200.792 167.887 191.508 161.672 183.69C155.457 175.871 148.778 167.855 146.625 158.102C145.962 155.1 145.811 151.752 147.465 149.161C149.993 145.202 155.685 144.637 160.193 145.958C166.43 147.785 171.636 152.322 175.229 157.737C178.822 163.153 180.937 169.418 182.467 175.734C185.179 186.93 186.168 199.253 185.39 210.746" fill="white"/>
<path d="M174.905 210.746C174.071 200.792 167.887 191.508 161.672 183.69C155.457 175.871 148.778 167.855 146.625 158.102C145.962 155.1 145.811 151.752 147.465 149.161C149.993 145.202 155.685 144.637 160.193 145.958C166.43 147.785 171.636 152.322 175.229 157.737C178.822 163.153 180.937 169.418 182.467 175.734C185.179 186.93 186.168 199.253 185.39 210.746" stroke="#99BFE3" stroke-width="1.33333" stroke-miterlimit="10" stroke-linejoin="round"/>
<path d="M253.255 210.746C253.748 196.262 256.457 184.371 267.121 173.707C270.466 170.362 276.703 166.021 282.327 168.532C285.113 169.775 285.163 174.033 283.844 176.604C280.289 183.535 264.924 191.567 259.266 210.746" fill="white"/>
<path d="M253.255 210.746C253.748 196.262 256.457 184.371 267.121 173.707C270.466 170.362 276.703 166.021 282.327 168.532C285.113 169.775 285.163 174.033 283.844 176.604C280.289 183.535 264.924 191.567 259.266 210.746" stroke="#99BFE3" stroke-width="1.33333" stroke-miterlimit="10" stroke-linejoin="round"/>
<path d="M243.71 210.746C238.866 176.108 247.722 162.145 252.808 157.048C256.177 153.672 262.562 148.779 268.264 152.368C275.061 156.648 271.262 166.339 267.121 173.707C262.366 182.166 255.966 195.122 254.925 210.746" fill="white"/>
<path d="M243.71 210.746C238.866 176.108 247.722 162.145 252.808 157.048C256.177 153.672 262.562 148.779 268.264 152.368C275.061 156.648 271.262 166.339 267.121 173.707C262.366 182.166 255.966 195.122 254.925 210.746" stroke="#99BFE3" stroke-width="1.33333" stroke-miterlimit="10" stroke-linejoin="round"/>
<path d="M262.868 210.746C263.941 205.033 269.352 192.729 277.442 188.887C279.52 187.9 282.153 187.666 284.387 188.302C286.427 188.883 287.896 190.756 288.178 192.828C288.516 195.312 287.176 197.418 285.29 198.915C280.733 202.532 275.3 206.055 271.219 210.746" fill="white"/>
<path d="M262.868 210.746C263.941 205.033 269.352 192.729 277.442 188.887C279.52 187.9 282.153 187.666 284.387 188.302C286.427 188.883 287.896 190.756 288.178 192.828C288.516 195.312 287.176 197.418 285.29 198.915C280.733 202.532 275.3 206.055 271.219 210.746" stroke="#99BFE3" stroke-width="1.33333" stroke-miterlimit="10" stroke-linejoin="round"/>
<path d="M111.697 167.812C111.697 167.812 97.2379 183.09 94.7448 210.491" stroke="#99BFE3" stroke-width="1.33333" stroke-miterlimit="10" stroke-linejoin="round"/>
<path d="M150.249 146.594C150.249 146.594 174.535 165.123 181.51 210.746" stroke="#99BFE3" stroke-width="1.33333" stroke-miterlimit="10" stroke-linejoin="round"/>
<path d="M194.177 211C194.177 211 198.817 173.022 229.457 153.728" stroke="#99BFE3" stroke-width="1.33333" stroke-miterlimit="10" stroke-linejoin="round"/>
<path d="M268.262 152.367C268.262 152.367 248.296 169.501 248.571 211" stroke="#99BFE3" stroke-width="1.33333" stroke-miterlimit="10" stroke-linejoin="round"/>
<path d="M256.555 210.746C259.093 196.139 266.805 182.1 282.327 168.532" stroke="#99BFE3" stroke-width="1.33333" stroke-miterlimit="10" stroke-linejoin="round"/>
<path d="M266.617 210.746C266.617 210.746 272.411 196.67 286.21 189.16" stroke="#99BFE3" stroke-width="1.33333" stroke-miterlimit="10" stroke-linejoin="round"/>
<path d="M297.707 211H1V210.491H297.707V211Z" stroke="#99BFE3" stroke-width="1.33333" stroke-miterlimit="10" stroke-linejoin="round"/>
<path d="M246.754 211H231.913L232.008 209.182H246.85L246.754 211Z" fill="#2D2D2D"/>
<path d="M245.214 191.075L245.572 203.54L244.867 209.182L234.669 203.026L234.025 189.64" fill="#FFB9A9"/>
<path d="M234.668 203.026C234.668 203.026 233.182 206.604 232.533 207.602C231.884 208.6 231.988 209.555 231.988 209.555H246.824C247.083 208.043 245.598 203.026 245.598 203.026C245.598 203.026 237.446 203.553 234.668 203.026Z" fill="#E56767"/>
<path d="M238.314 204.237H241.848" stroke="#2D2D2D" stroke-width="1.33333" stroke-miterlimit="10" stroke-linejoin="round"/>
<path d="M238.166 205.437H241.946" stroke="#2D2D2D" stroke-width="1.33333" stroke-miterlimit="10" stroke-linejoin="round"/>
<path d="M238.032 206.636H242.077" stroke="#2D2D2D" stroke-width="1.33333" stroke-miterlimit="10" stroke-linejoin="round"/>
<path d="M215.769 57.3089C216.117 59.3194 216.424 61.298 218.308 62.5524C219.306 63.2175 220.505 63.5313 221.699 63.6381C222.686 63.726 223.694 63.6782 224.645 63.4026C225.583 63.1306 226.444 62.6465 227.294 62.1665C227.901 61.8238 228.557 61.4241 228.779 60.7625C228.886 60.4402 228.875 60.0903 228.952 59.7588C229.079 59.2096 229.434 58.7459 229.773 58.2953C230.447 57.3984 231.119 56.4083 231.156 55.2871C231.172 54.8279 231.077 54.3708 230.931 53.9355C230.483 52.6058 229.555 51.4785 228.47 50.5892C227.385 49.6993 226.143 49.0256 224.9 48.3737C224.328 48.0737 223.743 47.7731 223.106 47.6597C222.486 47.5499 221.847 47.6236 221.226 47.7248C219.611 47.9872 217.985 48.4494 216.675 49.4283C215.959 49.9627 215.34 50.6649 215.054 51.5111C214.661 52.6719 214.931 53.9467 215.291 55.1183C215.509 55.8302 215.642 56.5716 215.769 57.3089Z" fill="#031628"/>
<path d="M221.711 210.624V209.555H201.953C201.278 209.555 200.653 209.201 200.306 208.621L200.187 208.6V210.318C200.187 210.382 200.212 210.443 200.255 210.49L200.297 210.534C200.576 210.831 200.966 211 201.374 211H221.335C221.543 211 221.711 210.832 221.711 210.624Z" fill="#2D2D2D"/>
<path d="M222.348 188.967L221.079 203.49L220.749 209.182H201.521C201.076 209.182 200.716 208.821 200.716 208.376C200.716 208.043 200.921 207.744 201.232 207.624L210.056 203.49L209.247 187.533" fill="#FFB9A9"/>
<path d="M210.077 202.533L200.758 207.602C200.414 207.752 200.187 208.127 200.187 208.545C200.187 209.103 200.762 209.556 201.254 209.556H221.711L221.098 203.357C221.098 203.357 213.828 204.643 210.077 202.533Z" fill="#E56767"/>
<path d="M204.719 205.447L205.797 207.266" stroke="#2D2D2D" stroke-width="1.33333" stroke-miterlimit="10" stroke-linejoin="round"/>
<path d="M205.797 204.861L206.951 206.775" stroke="#2D2D2D" stroke-width="1.33333" stroke-miterlimit="10" stroke-linejoin="round"/>
<path d="M206.951 204.237L208.105 206.112" stroke="#2D2D2D" stroke-width="1.33333" stroke-miterlimit="10" stroke-linejoin="round"/>
<path d="M195.274 77.2842L203.612 85.5263L226.65 102.426L222.485 107.699C222.485 107.699 207.831 101.749 196.877 94.9227C192.908 92.4494 184.982 83.9124 184.982 83.9124" fill="#FFB9A9"/>
<path d="M224.334 101.379C225.683 102.03 228.236 103.094 229.586 103.745C230.381 104.129 231.742 104.89 231.676 105.277C231.504 106.274 229.428 104.62 229.341 105.125C229.288 105.432 231.028 106.206 231.92 106.607C232.716 106.965 233.747 107.558 233.682 108.104C233.599 108.806 229.15 106.764 229.15 106.764C229.15 106.764 233.749 109.107 233.648 109.692C233.503 110.535 228.872 108.188 228.872 108.188C228.872 108.188 232.762 110.256 232.655 110.879C232.547 111.503 229.717 109.721 228.474 109.269C229.292 109.801 231.66 111.406 231.343 111.734C231.06 112.027 229.365 111.145 228.934 110.971C224.821 109.307 222.074 107.533 222.074 107.533" fill="#FFB9A9"/>
<path d="M224.241 103.635C224.241 103.635 225.955 105.249 227.729 104.937" stroke="#EA8F86" stroke-miterlimit="10" stroke-linejoin="round"/>
<path d="M201.76 79.3321C201.76 79.3321 193.504 89.5609 190.744 92.4832C188.513 94.8456 175.681 97.5482 175.681 97.5482L175.243 104.048C178.673 104.03 194.068 103.841 200.734 97.175C206.224 91.6848 212.947 83.2317 212.947 83.2317" fill="#FFB9A9"/>
<path d="M179.042 97.175C177.385 97.2294 175.109 97.4206 173.453 97.4465C172.647 97.4593 170.988 97.4659 170.817 97.801C170.492 98.4422 172.889 98.3425 172.726 98.8042C172.626 99.0844 170.839 99.0051 169.953 98.9069C169.162 98.8195 168.176 98.7106 167.938 99.1785C167.732 99.5847 172.368 100.178 172.368 100.178C172.368 100.178 167.424 99.9798 167.234 100.514C166.961 101.284 172.321 101.475 172.321 101.475C172.321 101.475 167.673 101.41 167.471 101.98C167.269 102.551 170.919 102.606 172.357 102.752C171.468 102.798 168.219 102.743 168.072 103.159C167.924 103.575 169.602 103.908 170.026 103.941C172.585 104.142 177.709 104.009 177.709 104.009" fill="#FFB9A9"/>
<path d="M173.375 102.506C173.375 102.506 175.196 100.182 177.53 100.295" stroke="#EA8F86" stroke-miterlimit="10" stroke-linejoin="round"/>
<path d="M192.072 91.0081L199.388 82.2514" stroke="#EA8F86" stroke-miterlimit="10" stroke-linejoin="round"/>
<path d="M200.837 97.175L208.361 89.1856" stroke="#EA8F86" stroke-miterlimit="10" stroke-linejoin="round"/>
<path d="M207.604 112.044C206.989 112.88 207.664 200.634 207.664 200.634H222.919L227.898 134.558C227.898 134.558 229.502 119.953 225.576 107.208" fill="#1E2E59"/>
<path d="M243.038 112.044C244.355 113.837 248.235 200.634 248.235 200.634H232.98L224.626 134.558C224.626 134.558 223.022 119.953 226.948 107.208" fill="#1E2E59"/>
<path d="M226.648 150.548C226.648 150.548 224.241 124.722 224.241 117.39" stroke="#2F5FA5" stroke-miterlimit="10" stroke-linejoin="round"/>
<path d="M221.325 117.39C221.325 117.39 221.73 127.358 222.258 129.751C222.489 130.802 224.8 130.587 224.8 130.587" stroke="#2F5FA5" stroke-miterlimit="10" stroke-linejoin="round"/>
<path d="M246.6 200.634C246.6 200.634 242.581 124.184 240.118 116.553" stroke="#2F5FA5" stroke-miterlimit="10" stroke-linejoin="round"/>
<path d="M233.732 118.687C233.732 118.687 235.191 122.563 236.311 123.684C237.431 124.804 241.18 124.457 241.18 124.457" stroke="#2F5FA5" stroke-miterlimit="10" stroke-linejoin="round"/>
<path d="M221.711 200.634L226.055 143.939" stroke="#2F5FA5" stroke-miterlimit="10" stroke-linejoin="round"/>
<path d="M207.382 123.322C207.382 123.322 210.518 123.604 211.348 122.911C212.483 121.962 214.498 119.476 214.498 119.476" stroke="#2F5FA5" stroke-miterlimit="10" stroke-linejoin="round"/>
<path d="M222.258 67.2977C222.258 67.2977 217.466 64.7324 209.902 69.1059C206.107 71.2995 201.135 76.8853 197.546 83.1184C199.005 85.5622 208.154 92.6017 211.606 92.2539C214.345 88.7575 217.3 78.1652 217.3 78.1652" fill="#E56767"/>
<path d="M208.154 76.4367L206.303 119.476L245.805 118.687C245.477 109.24 242.241 85.7584 240.118 75.1721C232.507 65.5494 223.151 65.4711 223.151 65.4711L215.861 69.9626L208.154 76.4367Z" fill="#E56767"/>
<path d="M207.655 90.2991C207.655 90.2991 208.154 81.1585 208.154 76.4366" stroke="#A84545" stroke-miterlimit="10" stroke-linejoin="round"/>
<path d="M242.659 69.846C242.659 69.846 252.275 76.2631 258.367 74.0339C262.847 72.3945 271.96 58.6937 271.96 58.6937L279.044 61.7081C277.191 65.3133 268.275 85.8365 257.161 86.6114C247.88 87.2592 237.108 81.8316 237.108 81.8316" fill="#FFB9A9"/>
<path d="M269.77 62.036C270.713 60.3203 272.132 58.0229 273.044 56.2915C273.488 55.4495 274.383 53.7038 274.827 53.7038C275.677 53.7038 274.29 56.1766 274.864 56.2509C275.213 56.2961 276.084 54.3705 276.455 53.3845C276.785 52.5043 277.198 51.4065 277.818 51.4065C278.357 51.4065 276.502 56.6088 276.502 56.6088C276.502 56.6088 278.937 51.2931 279.602 51.379C280.56 51.5026 277.895 57.2531 277.895 57.2531C277.895 57.2531 280.312 52.3202 281.021 52.4118C281.73 52.5038 279.836 56.3805 279.221 57.9731C279.745 57.0614 281.425 53.6087 281.942 53.6759C282.458 53.7425 281.913 55.6895 281.721 56.1532C280.564 58.957 277.685 64.2855 277.685 64.2855" fill="#FFB9A9"/>
<path d="M278.417 58.9147C278.417 58.9147 274.995 59.5915 273.866 62.1116" stroke="#EA8F86" stroke-miterlimit="10" stroke-linejoin="round"/>
<path d="M225.346 66.33C225.346 66.33 233.96 65.0664 242.699 69.3169C249.285 72.5204 250.371 73.2673 250.371 73.2673L245.283 85.7584L231.031 79.5243" fill="#E56767"/>
<path d="M217.767 55.8896C217.418 55.5402 216.81 55.5753 216.45 55.8967C216.046 56.2567 215.973 56.992 216.072 57.4954C216.233 58.31 216.973 59.1866 217.889 58.9136C218.227 58.8129 218.51 58.5414 218.624 58.2078" fill="#FFB9A9"/>
<path d="M228.031 56.1375C228.065 56.1014 228.1 56.0653 228.138 56.0338C228.456 55.7719 228.973 55.8889 229.239 56.2031C229.506 56.5174 229.561 56.9638 229.509 57.3721C229.452 57.8216 229.27 58.2661 228.94 58.5767C228.61 58.8869 228.121 59.043 227.687 58.9139C227.349 58.8132 227.066 58.5417 226.952 58.2076" fill="#FFB9A9"/>
<path d="M219.24 61.3156L223.904 54.9773L226.365 60.7283L226.778 66.756C225.169 70.2056 220.126 69.4235 219.301 67.3992L219.24 61.3156Z" fill="#FFB9A9"/>
<path d="M217.835 51.8416C216.927 54.1806 217.264 62.5229 219.102 63.6025C220.941 64.682 224.983 64.4206 226.287 63.0848C227.419 61.9254 229.2 54.921 227.605 53.0614C226.011 51.2019 219.109 48.5613 217.835 51.8416Z" fill="#FFB9A9"/>
<path d="M227.234 47.5553C226.721 46.4473 225.617 45.654 224.414 45.439C223.2 45.2223 221.914 45.5701 220.919 46.2983C220.329 46.7295 219.82 47.2949 219.141 47.5655C218.361 47.8762 217.486 47.7485 216.646 47.7378C215.806 47.7277 214.862 47.9001 214.383 48.5906C214.058 49.0604 214.023 49.6701 214.054 50.2406C214.099 51.0888 214.272 51.9492 214.716 52.6733C215.159 53.3973 215.905 53.9689 216.75 54.0523C217.839 54.1596 218.826 53.4797 219.82 53.019C220.789 52.5695 221.827 52.2909 222.794 51.8368C223.722 51.4005 224.603 51.3771 225.513 51.9268C226.335 52.4231 226.945 53.1955 227.611 53.8875C228.043 54.3375 228.534 54.7749 229.142 54.9223C229.748 55.0698 230.491 54.8288 230.719 54.2475C230.874 53.856 230.768 53.4157 230.662 53.0089C230.512 52.4302 230.36 51.8526 230.209 51.2744C230.065 50.7191 229.916 50.1547 229.61 49.6691C229.364 49.2776 229.034 48.9918 228.652 48.7396C228.319 48.5199 227.843 48.4452 227.567 48.1604C227.414 48.0028 227.339 47.7872 227.248 47.5863C227.243 47.5761 227.238 47.5655 227.234 47.5553Z" fill="#031628"/>
<path d="M220.283 64.1915C220.283 64.1915 224.034 64.732 225.736 63.4186" stroke="#EA8F86" stroke-miterlimit="10" stroke-linejoin="round"/>
<path d="M222.016 56.4283C222.016 56.4283 221.011 58.868 221.404 59.4675C221.798 60.067 222.847 59.7111 222.847 59.7111" stroke="#EA8F86" stroke-miterlimit="10" stroke-linejoin="round"/>
<path d="M224.223 56.4039C224.157 56.5529 224.152 56.7609 224.133 56.8854C224.098 57.1056 224.328 57.2465 224.535 57.1992C224.922 57.1102 224.931 56.2147 224.461 56.2285C224.339 56.232 224.268 56.3047 224.223 56.4039Z" fill="#3F111D"/>
<path d="M218.936 56.1821C218.87 56.3311 218.865 56.5391 218.846 56.6637C218.811 56.8839 219.041 57.0247 219.248 56.9774C219.635 56.8884 219.644 55.993 219.174 56.0067C219.052 56.0103 218.981 56.083 218.936 56.1821Z" fill="#3F111D"/>
<path d="M220.402 60.7935L223.718 60.7096C223.718 60.7096 224.038 62.648 222.049 62.6007C220.249 62.558 220.402 60.7935 220.402 60.7935Z" fill="white"/>
<path d="M223.809 55.1999C224.426 55.2609 225.079 55.4618 225.603 55.744C225.669 55.7165 225.855 55.4363 225.777 55.2553C225.715 55.1124 224.776 54.6909 223.897 54.6344C223.897 54.6344 223.695 55.1104 223.809 55.1999Z" fill="#3F111D"/>
<path d="M219.825 55.0688C219.379 55.0352 218.914 55.1303 218.546 55.3236C218.497 55.287 218.409 55.0347 218.457 54.872C218.495 54.7434 219.158 54.479 219.794 54.5562C219.794 54.5562 219.903 55.0002 219.825 55.0688Z" fill="#3F111D"/>
<path d="M241.753 84.4622L233.732 80.706" stroke="#A84545" stroke-miterlimit="10" stroke-linejoin="round"/>
<path d="M144.309 76.0407C144.309 76.0407 150.02 81.7063 152.218 81.4719C155.868 81.0819 176.383 68.632 176.383 68.632L178.688 77.047C178.688 77.047 163.317 93.6904 154.169 94.7303C146.264 95.6293 135.607 86.1556 135.607 86.1556" fill="#C96947"/>
<path d="M180.327 51.1641C181.197 51.5393 181.769 52.4216 181.997 53.3419C182.225 54.2623 182.158 55.2274 182.067 56.1712C182.041 56.4432 182.013 56.7193 182.061 56.9883C182.289 58.2423 183.969 58.7167 184.42 59.9081C184.55 60.2513 184.565 60.6255 184.578 60.9922C184.602 61.673 184.651 63.0338 184.651 63.0338C184.651 63.0338 178.653 63.5163 175.108 63.4202" fill="#611223"/>
<path d="M154.335 211H169.177L169.082 209.182H154.24L154.335 211Z" fill="#2D2D2D"/>
<path d="M155.876 191.075L155.518 203.54L156.222 209.182L165.912 203.026L167.064 189.64" fill="#FFB9A9"/>
<path d="M165.913 203.026C165.913 203.026 167.908 206.604 168.557 207.602C169.205 208.6 169.101 209.555 169.101 209.555H154.266C154.006 208.043 155.491 203.026 155.491 203.026C155.491 203.026 163.135 203.553 165.913 203.026Z" fill="#4063D9"/>
<path d="M162.775 204.237H159.242" stroke="#2D2D2D" stroke-width="1.33333" stroke-miterlimit="10" stroke-linejoin="round"/>
<path d="M162.923 205.437H159.144" stroke="#2D2D2D" stroke-width="1.33333" stroke-miterlimit="10" stroke-linejoin="round"/>
<path d="M163.058 206.636H159.013" stroke="#2D2D2D" stroke-width="1.33333" stroke-miterlimit="10" stroke-linejoin="round"/>
<path d="M176.668 210.624L176.612 209.555H196.369C197.044 209.555 197.651 209.201 197.967 208.621L198.085 208.6L198.175 210.318C198.179 210.382 198.157 210.443 198.116 210.49L198.078 210.534C197.814 210.831 197.433 211 197.025 211H177.063C176.856 211 176.678 210.832 176.668 210.624Z" fill="#2D2D2D"/>
<path d="M177.323 191.075L177.364 203.445L177.554 209.182H196.781C197.227 209.182 197.568 208.821 197.545 208.376C197.528 208.043 197.306 207.744 196.989 207.624L187.949 203.49L189.997 189.64" fill="#FFB9A9"/>
<path d="M188.045 202.691L197.462 207.602C197.814 207.752 198.06 208.127 198.083 208.545C198.112 209.103 197.561 209.555 197.069 209.555H176.612L177.234 203.312C177.234 203.312 184.404 204.802 188.045 202.691Z" fill="#4063D9"/>
<path d="M193.31 205.437L192.092 207.74" stroke="#2D2D2D" stroke-width="1.33333" stroke-miterlimit="10" stroke-linejoin="round"/>
<path d="M191.766 204.635L190.548 206.938" stroke="#2D2D2D" stroke-width="1.33333" stroke-miterlimit="10" stroke-linejoin="round"/>
<path d="M190.223 203.833L189.004 206.136" stroke="#2D2D2D" stroke-width="1.33333" stroke-miterlimit="10" stroke-linejoin="round"/>
<path d="M175.618 65.8977C175.618 65.8977 184.711 67.0759 188.715 70.255C192.744 73.4534 198.74 79.9067 198.74 79.9067L190.49 90.2992L183.04 82.2503" fill="#4063D9"/>
<path d="M183.858 98.0465L187.65 101.531C188.405 103.993 193.937 109.911 195.16 128.639C196.511 149.352 193.889 192.746 193.889 192.746H176.088L175.149 119.063L174.448 92.2543" fill="#0F43AA"/>
<path d="M162.607 99.9972C161.333 103.42 156.656 110.638 154.64 120.54C151.518 135.872 154.223 192.746 154.223 192.746H169.326L178.149 118.751C178.149 118.751 178.947 112.192 178.566 101.261" fill="#0F43AA"/>
<path d="M175.83 142.5C176.192 135.159 178.24 111.374 178.566 101.261" stroke="#4063D9" stroke-miterlimit="10" stroke-linejoin="round"/>
<path d="M167.248 99.9972C167.248 99.9972 160.661 107.986 158.78 119.573C157.196 129.322 157.589 192.746 157.589 192.746" stroke="#4063D9" stroke-miterlimit="10" stroke-linejoin="round"/>
<path d="M172.943 101.261C172.943 101.261 171.374 107.113 162.464 107.908" stroke="#4063D9" stroke-miterlimit="10" stroke-linejoin="round"/>
<path d="M190.539 107.342C190.539 107.342 184.148 103.896 182.878 101.261" stroke="#4063D9" stroke-miterlimit="10" stroke-linejoin="round"/>
<path d="M181.142 102.166C181.142 102.166 180.844 111.505 180.069 112.308C179.294 113.111 177.651 113.306 177.651 113.306" stroke="#4063D9" stroke-miterlimit="10" stroke-linejoin="round"/>
<path d="M179.269 192.665C179.269 192.665 177.712 137.395 176.9 126.776" stroke="#4063D9" stroke-miterlimit="10" stroke-linejoin="round"/>
<path d="M158.864 74.3464C160.593 71.6336 169.885 66.1765 169.885 66.1765C173.022 65.7834 176.627 66.0006 176.627 66.0006C176.627 66.0006 181.88 70.2561 185.488 75.1717C188.452 78.035 189.648 80.2246 189.693 83.1845C189.724 85.2073 188.785 86.9321 188.303 90.0064C187.781 93.337 187.651 101.531 187.651 101.531C181.981 103.618 170.471 103.393 162.067 101.261C160.993 93.5145 157.135 77.0592 158.864 74.3464Z" fill="#4063D9"/>
<path d="M185.488 75.1719C188.451 78.0352 189.648 80.2242 189.693 83.1841C189.724 85.2069 189.069 86.2748 188.651 88.2507" stroke="#262A82" stroke-miterlimit="10" stroke-linejoin="round"/>
<path d="M176.205 82.7192L174.903 68.3248L176.205 82.7192Z" stroke="#262A82" stroke-miterlimit="10" stroke-linejoin="round"/>
<path d="M173.765 72.5633C173.77 72.7133 173.896 72.8349 174.045 72.8349C174.195 72.8349 174.313 72.7133 174.307 72.5633C174.302 72.4133 174.177 72.2918 174.027 72.2918C173.877 72.2918 173.76 72.4133 173.765 72.5633Z" fill="#262A82"/>
<path d="M174.2 77.2715C174.206 77.4215 174.332 77.5431 174.481 77.5431C174.631 77.5431 174.749 77.4215 174.743 77.2715C174.738 77.1215 174.612 77 174.462 77C174.312 77 174.195 77.1215 174.2 77.2715Z" fill="#262A82"/>
<path d="M174.636 81.9797C174.641 82.1297 174.767 82.2513 174.917 82.2513C175.067 82.2513 175.184 82.1297 175.179 81.9797C175.174 81.8297 175.048 81.7082 174.898 81.7082C174.748 81.7082 174.631 81.8297 174.636 81.9797Z" fill="#262A82"/>
<path d="M153.866 76.4853C153.866 76.4853 143.119 85.9137 140.937 87.5546C138.813 89.1518 120.336 98.4562 120.336 98.4562L121.951 103.806C121.951 103.806 142.758 98.9743 149.077 95.2527C154.199 92.2368 164.002 83.6036 164.002 83.6036" fill="#FFB9A9"/>
<path d="M169.59 66.2922C169.59 66.2922 164.788 66.9355 159.525 70.0723C155.712 72.3448 149.078 80.0947 149.078 80.0947L158.862 89.8664L168.788 81.0039" fill="#4063D9"/>
<path d="M160.253 88.6244L166.207 83.3081" stroke="#262A82" stroke-miterlimit="10" stroke-linejoin="round"/>
<path d="M123.143 97.0191C121.74 97.4401 119.105 98.0691 117.702 98.4901C116.876 98.7383 115.451 99.2651 115.48 99.6607C115.552 100.678 117.774 99.3835 117.811 99.8991C117.832 100.212 116.031 100.689 115.107 100.939C114.284 101.161 113.202 101.577 113.213 102.13C113.228 102.84 117.84 101.557 117.84 101.557C117.84 101.557 113.049 103.114 113.092 103.711C113.153 104.571 117.976 103.015 117.976 103.015C117.976 103.015 113.916 104.417 113.961 105.054C114.007 105.69 116.962 104.585 118.239 104.344C117.376 104.736 115.036 105.509 115.069 105.974C115.102 106.437 116.923 106.138 117.35 105.978C121.578 104.399 124.73 102.823 124.73 102.823" fill="#FFB9A9"/>
<path d="M123.015 99.2721C123.015 99.2721 121.156 100.587 119.428 99.981" stroke="#EA8F86" stroke-miterlimit="10" stroke-linejoin="round"/>
<path d="M176.152 61.3064L176.669 66.3267C176.669 66.3267 177.656 68.3037 173.891 68.4135C170.982 68.4985 169.885 66.1767 169.885 66.1767L171.257 58.4136" fill="#FFB9A9"/>
<path d="M180.247 50.1862C181.269 53.4105 182.514 60.0499 178.836 61.9964C177.99 62.4444 176.701 62.3244 175.385 61.7437C172.534 60.4847 170.703 58.1853 170.197 56.1742C169.561 53.6485 176.136 44.6528 180.247 50.1862Z" fill="#FFB9A9"/>
<path d="M165.684 51.336C165.199 51.6905 164.585 51.9203 164.181 52.3749C163.343 53.3151 163.175 54.8217 163.762 55.9323C163.976 56.336 164.289 56.7281 164.271 57.1847C164.246 57.7756 163.725 58.2174 163.251 58.5714C161.148 60.1451 162.036 63.3008 162.036 63.3008C162.036 63.3008 168.04 63.5734 171.609 63.3222C171.646 61.3065 171.149 59.0509 171.729 57.1201C172.308 55.1889 173.402 53.3527 175.069 52.2208C175.871 51.6767 176.879 51.187 177.085 50.2402C178.616 50.9135 180.034 51.8461 181.259 52.9856C181.93 51.7393 181.964 50.1446 181.252 48.9207C180.863 48.2531 179.729 47.2132 178.653 47.0383C176.467 44.8523 171.77 45.0272 169.045 46.8394C166.969 48.22 167.013 50.3653 165.684 51.336Z" fill="#611223"/>
<path d="M178.246 55.1806C178.246 55.1806 179.574 57.2862 179.315 57.7464C179.056 58.2066 177.957 57.9712 177.957 57.9712" stroke="#EA8F86" stroke-miterlimit="10" stroke-linejoin="round"/>
<path d="M175.393 55.1934C175.375 55.2224 175.358 55.2534 175.343 55.2834C175.238 55.5061 175.268 55.7202 175.271 55.9622C175.276 56.3467 175.918 56.3141 175.874 55.9195C175.847 55.677 175.808 55.4166 175.706 55.1909C175.606 54.9676 175.48 55.0586 175.393 55.1934Z" fill="#031628"/>
<path d="M179.782 54.6817C179.77 54.7138 179.759 54.7478 179.751 54.7799C179.692 55.0209 179.763 55.2263 179.812 55.4648C179.891 55.8436 180.511 55.6875 180.391 55.3062C180.318 55.0718 180.23 54.8221 180.087 54.6187C179.946 54.4178 179.841 54.5317 179.782 54.6817Z" fill="#031628"/>
<path d="M173.42 54.9113C173.42 54.9113 173.4 54.7293 173.493 54.4562C173.583 54.1949 173.812 53.8847 174.128 53.6813C174.445 53.4809 174.844 53.4036 175.136 53.4682C175.282 53.4936 175.393 53.5638 175.463 53.6055C175.532 53.6589 175.563 53.694 175.563 53.694C175.563 53.694 175.512 53.7006 175.438 53.7031C175.364 53.7062 175.262 53.7362 175.153 53.7687C174.931 53.8379 174.669 53.967 174.418 54.1262C174.168 54.2838 173.929 54.4694 173.744 54.6286C173.66 54.7079 173.566 54.7694 173.515 54.83C173.459 54.8839 173.42 54.9113 173.42 54.9113Z" fill="#031628"/>
<path d="M178.814 53.5999C178.814 53.5999 178.825 53.5633 178.851 53.5099C178.875 53.4652 178.937 53.3727 179.026 53.3142C179.202 53.1769 179.518 53.1225 179.801 53.1972C180.086 53.2715 180.327 53.4627 180.441 53.6493C180.557 53.8379 180.56 53.9884 180.56 53.9884C180.56 53.9884 180.521 53.9767 180.467 53.9539C180.418 53.9269 180.333 53.9061 180.251 53.8755C180.083 53.8166 179.882 53.752 179.685 53.7027C179.49 53.6503 179.296 53.6091 179.13 53.5979C178.97 53.575 178.813 53.6066 178.814 53.5999Z" fill="#031628"/>
<path d="M172.742 60.145C172.742 60.145 173.652 61.5718 176.251 62.2684" stroke="#EA8F86" stroke-miterlimit="10" stroke-linejoin="round"/>
<path d="M172.546 56.6695C172.246 55.4237 170.977 55.6174 170.64 55.8671C170.398 56.0471 170.303 56.3674 170.277 56.6731C170.21 57.4383 170.496 58.2392 171.037 58.8072C171.231 59.0101 171.462 59.187 171.728 59.2674C172.476 59.4936 172.953 58.9338 172.951 58.289" fill="#FFB9A9"/>
<path d="M179.441 58.9072H175.83C175.83 58.9072 176.185 60.7993 177.929 60.7993C179.478 60.7993 179.441 58.9072 179.441 58.9072Z" fill="white"/>
<path d="M170.098 64.9707L174.903 68.3247L173.145 71.5602L168.999 66.5043L170.098 64.9707Z" fill="white"/>
<path d="M176.573 65.1114L174.903 68.3246L176.41 71.2397L177.889 66.165L176.573 65.1114Z" fill="white"/>
<path d="M169.177 195.122H153.721V191.203H169.736L169.177 195.122Z" fill="#BADFF4"/>
<path d="M193.991 195.122H175.751V191.203H194.156L193.991 195.122Z" fill="#BADFF4"/>
<path d="M181.047 66.9594C181.72 68.2063 184.824 70.1822 185.286 70.0673C185.748 69.9524 184.702 68.6395 184.611 68.3354C185.648 68.6141 186.524 69.0178 187.154 69.4078C187.944 69.896 188.816 70.4416 189.582 70.9663C189.206 70.0231 188.121 68.5744 187.665 68.2235C185.887 66.8572 183.262 66.2282 181.047 66.9594Z" fill="#C96947"/>
<path d="M123.507 64.4689C123.507 64.4689 131.493 62.3658 138.448 68.0853C144.223 72.8346 148.304 78.7814 148.304 78.7814L137.781 87.7171L126.648 78.4565" fill="#E0D5D1"/>
<path d="M117.929 210.624V209.555H98.1711C97.4959 209.555 96.8709 209.201 96.5241 208.621L96.4052 208.6V210.318C96.4052 210.382 96.4296 210.443 96.4733 210.49L96.5145 210.534C96.7936 210.831 97.1837 211 97.5915 211H117.553C117.761 211 117.929 210.832 117.929 210.624Z" fill="#2D2D2D"/>
<path d="M118.356 188.967L116.856 203.445L116.967 209.182H97.7396C97.2946 209.182 96.9336 208.821 96.9336 208.376C96.9336 208.043 97.139 207.744 97.4497 207.624L106.274 203.49L105.607 187.533" fill="#C96947"/>
<path d="M106.136 202.691L96.9758 207.602C96.6321 207.752 96.4053 208.127 96.4053 208.545C96.4053 209.103 96.9799 209.555 97.4716 209.555H117.929L116.979 203.312C116.979 203.312 109.887 204.802 106.136 202.691Z" fill="#404058"/>
<path d="M100.861 205.519L102.015 207.266" stroke="#2D2D2D" stroke-width="1.33333" stroke-miterlimit="10" stroke-linejoin="round"/>
<path d="M102.015 204.901L103.169 206.775" stroke="#2D2D2D" stroke-width="1.33333" stroke-miterlimit="10" stroke-linejoin="round"/>
<path d="M103.169 204.237L104.322 206.112" stroke="#2D2D2D" stroke-width="1.33333" stroke-miterlimit="10" stroke-linejoin="round"/>
<path d="M133.335 210.624V209.555H153.093C153.769 209.555 154.394 209.201 154.74 208.621L154.859 208.6V210.318C154.859 210.382 154.835 210.443 154.791 210.49L154.75 210.534C154.471 210.831 154.081 211 153.673 211H133.712C133.504 211 133.335 210.832 133.335 210.624Z" fill="#2D2D2D"/>
<path d="M131.348 188.967L133.369 203.445L134.298 209.182H153.525C153.97 209.182 154.331 208.821 154.331 208.376C154.331 208.043 154.126 207.744 153.814 207.624L143.951 203.49L144.098 187.533" fill="#C96947"/>
<path d="M144.089 202.691L154.289 207.602C154.632 207.752 154.859 208.127 154.859 208.545C154.859 209.103 154.285 209.555 153.793 209.555H133.335L133.245 203.312C133.245 203.312 140.338 204.802 144.089 202.691Z" fill="#404058"/>
<path d="M149.71 205.398L148.436 207.266" stroke="#2D2D2D" stroke-width="1.33333" stroke-miterlimit="10" stroke-linejoin="round"/>
<path d="M148.514 204.822L147.281 206.775" stroke="#2D2D2D" stroke-width="1.33333" stroke-miterlimit="10" stroke-linejoin="round"/>
<path d="M147.282 204.237L146.128 206.112" stroke="#2D2D2D" stroke-width="1.33333" stroke-miterlimit="10" stroke-linejoin="round"/>
<path d="M118.556 106.676C118.556 106.676 118.496 117.912 119.948 128.073C121.4 138.235 128.058 201.477 128.058 201.477H146.223C146.223 201.477 144.729 153.342 142.687 128.817C142.246 123.517 140.998 112.851 136.414 106.356" fill="#404058"/>
<path d="M143.623 201.477C143.623 201.477 142.129 153.343 140.087 128.817C139.646 123.517 138.398 112.851 133.814 106.357" stroke="#161515" stroke-miterlimit="10" stroke-linejoin="round"/>
<path d="M103.241 109.348C101.399 132.8 104.356 201.477 104.356 201.477H121.281L125.603 130.83C125.603 130.83 129.428 115.145 125.718 107.471" fill="#404058"/>
<path d="M123.78 160.627C123.78 160.627 120.674 124.694 119.355 110.289" stroke="#161515" stroke-miterlimit="10" stroke-linejoin="round"/>
<path d="M118.718 201.477L122.673 147.864" stroke="#161515" stroke-miterlimit="10" stroke-linejoin="round"/>
<path d="M130.562 115.843C130.562 115.843 130.387 120.082 139.061 121.458" stroke="#161515" stroke-miterlimit="10" stroke-linejoin="round"/>
<path d="M102.734 121.458C102.734 121.458 110.69 121.33 111.6 115.843" stroke="#161515" stroke-miterlimit="10" stroke-linejoin="round"/>
<path d="M104.249 198.712H121.386" stroke="#161515" stroke-miterlimit="10" stroke-linejoin="round"/>
<path d="M127.694 198.712H146.028" stroke="#161515" stroke-miterlimit="10" stroke-linejoin="round"/>
<path d="M97.5419 75.379C97.5419 75.379 91.831 81.0451 89.6328 80.8102C85.9828 80.4202 65.4678 65.3709 65.4678 65.3709L61.6038 69.1057C61.6038 69.1057 78.534 91.9889 87.6817 93.0287C95.5867 93.9277 106.244 84.454 106.244 84.454" fill="#C96947"/>
<path d="M118.344 64.4689C118.344 64.4689 110.799 62.9486 103.403 68.0853C96.9456 72.5707 93.2397 77.0744 93.2397 77.0744L103.244 88.4041L115.202 78.4565" fill="#E0D5D1"/>
<path d="M93.651 76.1891C93.651 76.1891 101.674 84.837 105.508 86.0431C108.608 87.0174 121.129 83.1203 121.129 83.1203L124.68 88.582C121.677 90.2387 106.8 98.9161 98.6291 94.2131C91.8051 90.285 85.599 84.6026 85.599 84.6026" fill="#FFB9A9"/>
<path d="M118.014 84.4333C119.486 83.6736 121.567 82.7303 123.025 81.9452C123.735 81.5633 125.187 80.7599 125.499 80.9699C126.096 81.3711 123.954 82.4527 124.322 82.7761C124.546 82.9719 126.067 82.0317 126.793 81.514C127.44 81.0518 128.249 80.4757 128.685 80.7686C129.063 81.0228 125.304 83.8007 125.304 83.8007C125.304 83.8007 129.524 81.2176 129.95 81.5913C130.564 82.1308 125.978 84.9112 125.978 84.9112C125.978 84.9112 130.004 82.5879 130.459 82.9871C130.913 83.3863 127.753 85.2143 126.569 86.0426C127.367 85.6496 130.177 84.0183 130.509 84.3092C130.84 84.6 129.537 85.7096 129.184 85.945C127.047 87.3678 122.51 89.75 122.51 89.75" fill="#FFB9A9"/>
<path d="M125.56 86.3244C125.56 86.3244 122.836 85.1839 120.854 86.4205" stroke="#EA8F86" stroke-miterlimit="10" stroke-linejoin="round"/>
<path d="M118.245 64.7034C118.245 64.7034 107.75 65.5281 104.284 84.0677C102.817 91.9152 102.377 115.871 102.377 115.871C102.377 115.871 122.335 117.172 141.387 115.843C141.387 107.808 139.149 87.6876 136.889 77.7395C135.357 70.9929 129.007 67.5646 123.804 64.44" fill="#E0D5D1"/>
<path d="M116.362 49.1978C115.439 50.5209 114.917 52.1201 114.882 53.733C114.855 54.9488 115.194 56.3085 116.232 56.9431C116.632 57.1882 117.173 57.2909 117.559 57.0245C117.869 56.8109 117.998 56.4235 118.095 56.0604C118.362 55.0546 118.527 54.0214 118.585 52.9825C118.622 52.3372 118.616 51.6813 118.447 51.0574C118.277 50.4339 117.931 49.84 117.396 49.4765" fill="#031628"/>
<path d="M117.592 60.1788L117.502 64.7033C117.502 64.7033 117.876 66.334 120.956 66.4179C124.866 66.5247 125.642 64.4404 125.642 64.4404L124.905 56.0437" fill="#C96947"/>
<path d="M117.135 55.2254C117.086 54.99 116.778 54.9035 116.546 54.9686C116.217 55.0616 115.972 55.3556 115.863 55.68C115.753 56.0039 115.76 56.3558 115.798 56.6959C115.833 57.0117 115.898 57.3361 116.082 57.5955C116.41 58.0567 117.115 58.194 117.592 57.8904" fill="#A35138"/>
<path d="M116.799 50.7253C116.799 50.7253 115.89 58.4767 117.183 59.8583C119.119 61.9278 122.42 61.3731 123.889 60.0856C125.12 59.006 126.125 54.2766 125.951 53.0404C125.479 49.6839 118.316 48.7101 116.799 50.7253Z" fill="#C96947"/>
<path d="M127.126 49.3888C126.71 48.6469 126.673 47.6772 126.203 46.9592C125.806 46.3511 125.134 45.9951 124.449 45.8772C123.734 45.7536 122.976 45.8579 122.306 45.5634C121.881 45.3763 121.527 45.0417 121.116 44.8221C119.999 44.2271 118.499 44.6548 117.806 45.7653C117.692 45.9489 117.596 46.1497 117.446 46.3007C117.107 46.6419 116.593 46.6486 116.138 46.7513C115.584 46.8769 114.785 47.2318 114.548 47.8303C114.312 48.4273 114.31 49.2668 114.576 49.8444C115.04 50.8522 115.884 50.8777 116.764 51.1156C118.312 51.5341 119.755 50.9361 121.309 50.8751C121.972 50.8492 123.039 50.9148 123.478 51.4594C124.151 52.2918 124.375 53.3794 124.498 54.43C124.635 55.5949 124.089 57.6548 124.93 58.5788C125.445 58.202 127.156 57.6594 127.365 56.9867C127.556 56.3714 127.35 55.6768 127.536 55.059C127.699 54.5169 128.134 54.1264 128.418 53.6439C128.979 52.6879 128.859 51.3343 128.14 50.509C127.871 50.1999 127.532 49.9629 127.285 49.6334C127.226 49.5551 127.174 49.4737 127.126 49.3888Z" fill="#031628"/>
<path d="M117.592 60.363C119.612 61.5824 121.765 61.2412 122.721 60.87C124.513 60.1749 124.687 58.4338 124.687 58.4338" stroke="#77331E" stroke-miterlimit="10" stroke-linejoin="round"/>
<path d="M119.747 54.0784C119.747 54.0784 119.495 56.1184 119.678 56.5034C119.861 56.8888 120.971 56.5954 120.971 56.5954" stroke="#77331E" stroke-miterlimit="10" stroke-linejoin="round"/>
<path d="M121.678 54.6314C121.662 54.8282 121.77 54.997 121.919 55.0087C122.068 55.0204 122.201 54.8709 122.216 54.6741C122.232 54.4773 122.124 54.3085 121.975 54.2968C121.826 54.2846 121.693 54.4346 121.678 54.6314Z" fill="#031628"/>
<path d="M117.503 54.2717C117.488 54.4685 117.596 54.6373 117.745 54.649C117.893 54.6607 118.026 54.5107 118.042 54.3144C118.058 54.1176 117.949 53.9488 117.801 53.9371C117.652 53.9249 117.519 54.0749 117.503 54.2717Z" fill="#031628"/>
<path d="M123.26 53.0187C123.207 52.9282 123.152 52.8393 123.094 52.7513C123.073 52.7182 123.05 52.6847 123.016 52.6643C122.976 52.6409 122.927 52.6399 122.88 52.6399C122.507 52.643 122.135 52.6877 121.772 52.7731C121.607 52.8123 121.411 52.8464 121.259 52.9232C121.058 53.0248 121.089 53.0233 121.198 53.2262C121.209 53.2466 121.221 53.2679 121.24 53.2801C121.272 53.3005 121.314 53.2898 121.351 53.2791C121.945 53.1047 122.575 53.0518 123.19 53.124C123.221 53.1281 123.262 53.1281 123.277 53.1001C123.29 53.0762 123.276 53.0472 123.26 53.0187Z" fill="#031628"/>
<path d="M117.187 52.8628C117.234 52.7749 117.284 52.6884 117.335 52.604C117.355 52.572 117.375 52.5394 117.403 52.5211C117.437 52.4992 117.476 52.5008 117.514 52.5033C117.813 52.5237 118.11 52.5867 118.397 52.6899C118.527 52.7362 118.682 52.7804 118.8 52.8643C118.956 52.9752 118.93 52.9721 118.83 53.1699C118.821 53.1893 118.81 53.2101 118.794 53.2213C118.767 53.2401 118.733 53.2274 118.705 53.2152C118.238 53.0118 117.735 52.9284 117.236 52.9716C117.21 52.9737 117.178 52.9721 117.168 52.9432C117.159 52.9188 117.172 52.8903 117.187 52.8628Z" fill="#031628"/>
<path d="M118.911 57.8131H122.439C122.439 57.8131 122.492 59.6488 120.291 59.6488C118.841 59.6488 118.911 57.8131 118.911 57.8131Z" fill="white"/>
<path d="M124.207 55.9342C124.33 55.6357 124.825 55.201 125.128 55.1913C125.432 55.1811 125.731 55.3225 125.973 55.5279C127.11 56.4941 126.338 58.7523 124.801 58.7309C124.237 58.7233 124.285 57.9712 124.285 57.9712" fill="#C96947"/>
<path d="M103.724 88.0046C103.724 88.0046 104.836 76.3312 106.57 73.0504" stroke="#A89892" stroke-miterlimit="10" stroke-linejoin="round"/>
<path d="M138.72 87.139C138.72 87.139 137.34 76.3315 135.607 73.0507" stroke="#A89892" stroke-miterlimit="10" stroke-linejoin="round"/>
<path d="M53.951 68.866C53.951 68.866 44.8454 74.9425 39.0766 72.8312C34.8348 71.2793 26.2052 58.3057 26.2052 58.3057L19.4977 61.1603C21.252 64.5738 29.695 84.0078 40.2187 84.7421C49.0079 85.3553 59.2073 80.2155 59.2073 80.2155" fill="#FFB9A9"/>
<path d="M28.2789 61.4704C27.386 59.8457 26.0425 57.6704 25.1786 56.031C24.7581 55.2332 23.9109 53.5806 23.4904 53.5806C22.6855 53.5806 23.9989 55.9222 23.4553 55.9924C23.1253 56.0351 22.3 54.2116 21.9492 53.2775C21.6359 52.4446 21.2454 51.4048 20.6581 51.4048C20.1481 51.4048 21.9039 56.331 21.9039 56.331C21.9039 56.331 19.5984 51.2975 18.9689 51.3788C18.0618 51.4958 20.5849 56.9412 20.5849 56.9412C20.5849 56.9412 18.2967 52.2702 17.6255 52.3572C16.9543 52.4441 18.7477 56.1149 19.3299 57.6231C18.8337 56.7597 17.2426 53.4906 16.7534 53.5537C16.2642 53.6167 16.7809 55.4605 16.9619 55.8998C18.0582 58.5547 20.7842 63.6004 20.7842 63.6004" fill="#FFB9A9"/>
<path d="M20.0905 58.5148C20.0905 58.5148 23.3316 59.156 24.3999 61.5423" stroke="#EA8F86" stroke-miterlimit="10" stroke-linejoin="round"/>
<path d="M93.9461 211H79.1042L79.1998 209.182H94.0412L93.9461 211Z" fill="#2D2D2D"/>
<path d="M92.4054 191.075L92.7633 203.54L92.0591 209.182L82.3688 203.026L81.217 189.64" fill="#FFB9A9"/>
<path d="M82.3687 203.026C82.3687 203.026 80.3734 206.604 79.7246 207.602C79.0758 208.6 79.18 209.555 79.18 209.555H94.0157C94.2751 208.043 92.7903 203.026 92.7903 203.026C92.7903 203.026 85.1466 203.553 82.3687 203.026Z" fill="#FC9854"/>
<path d="M85.5059 204.237H89.0394" stroke="#2D2D2D" stroke-width="1.33333" stroke-miterlimit="10" stroke-linejoin="round"/>
<path d="M85.3582 205.437H89.1378" stroke="#2D2D2D" stroke-width="1.33333" stroke-miterlimit="10" stroke-linejoin="round"/>
<path d="M85.2233 206.636H89.2683" stroke="#2D2D2D" stroke-width="1.33333" stroke-miterlimit="10" stroke-linejoin="round"/>
<path d="M71.6139 210.624L71.6698 209.555H51.9119C51.2366 209.555 50.63 209.201 50.3142 208.621L50.1962 208.6L50.1062 210.318C50.1027 210.382 50.124 210.443 50.1652 210.49L50.2038 210.534C50.4672 210.831 50.8486 211 51.2564 211H71.2183C71.4257 211 71.6032 210.832 71.6139 210.624Z" fill="#2D2D2D"/>
<path d="M70.9585 191.075L70.9168 203.445L70.7272 209.182H51.4996C51.0547 209.182 50.713 208.821 50.7364 208.376C50.7537 208.043 50.9748 207.744 51.2921 207.624L60.3326 203.49L58.2844 189.64" fill="#FFB9A9"/>
<path d="M60.2365 202.691L50.8192 207.602C50.4673 207.752 50.2207 208.127 50.1989 208.545C50.1699 209.103 50.7206 209.555 51.2123 209.555H71.6699L71.0475 203.312C71.0475 203.312 63.8773 204.802 60.2365 202.691Z" fill="#FC9854"/>
<path d="M54.9712 205.437L56.1895 207.74" stroke="#2D2D2D" stroke-width="1.33333" stroke-miterlimit="10" stroke-linejoin="round"/>
<path d="M56.5149 204.635L57.7332 206.938" stroke="#2D2D2D" stroke-width="1.33333" stroke-miterlimit="10" stroke-linejoin="round"/>
<path d="M58.0586 203.833L59.2769 206.136" stroke="#2D2D2D" stroke-width="1.33333" stroke-miterlimit="10" stroke-linejoin="round"/>
<path d="M62.8507 97.7864L59.601 99.3866L57.9275 104.554C55.2402 108.685 51.2007 116.888 51.6116 128.449C52.2223 145.631 57.8167 196.344 57.8167 196.344H71.8027L72.4612 118.851L72.3839 91.9804" fill="#4063D9"/>
<path d="M83.1462 98.7174C83.1462 98.7174 83.8311 100.6 84.8405 103.553C87.6529 106.891 91.4941 112.627 92.9916 120.332C95.9723 135.671 94.2496 196.344 94.2496 196.344H80.6749L69.4591 118.539C69.4591 118.539 67.5248 111.965 68.0989 101.009" fill="#4063D9"/>
<path d="M72.2291 137.754C71.4395 129.536 68.5538 116.358 68.4048 106.221" stroke="#4DA3F7" stroke-miterlimit="10" stroke-linejoin="round"/>
<path d="M57.929 104.555C57.929 104.555 66.0206 108.903 84.8388 103.553" stroke="#4DA3F7" stroke-miterlimit="10" stroke-linejoin="round"/>
<path d="M66.2875 106.191L65.7754 106.159C65.1769 106.123 64.7478 105.605 64.8179 105.005L65.0163 103.305C65.0834 102.734 65.5812 102.288 66.1543 102.288H67.2145" stroke="#4DA3F7" stroke-miterlimit="10" stroke-linejoin="round"/>
<path d="M67.4529 104.334C67.4305 104.765 67.1167 105.115 66.7527 105.115C66.3881 105.115 66.1115 104.765 66.1338 104.334C66.1567 103.903 66.4699 103.553 66.8345 103.553C67.1986 103.553 67.4752 103.903 67.4529 104.334Z" fill="#4DA3F7"/>
<path d="M76.9614 105.375C76.9685 105.24 76.1147 101.441 76.1147 101.441" stroke="#4DA3F7" stroke-miterlimit="10" stroke-linejoin="round"/>
<path d="M60.2805 105.375C60.1819 105.271 61.6036 101.279 61.6036 101.279" stroke="#4DA3F7" stroke-miterlimit="10" stroke-linejoin="round"/>
<path d="M82.2747 104.24C82.2747 104.24 87.0062 109.686 88.8591 119.363C90.712 129.039 91.7422 196.344 91.7422 196.344" stroke="#4DA3F7" stroke-miterlimit="10" stroke-linejoin="round"/>
<path d="M75.3292 105.637C75.3292 105.637 75.6887 109.568 84.6199 107.723" stroke="#4DA3F7" stroke-miterlimit="10" stroke-linejoin="round"/>
<path d="M56.5142 106.926C56.5142 106.926 60.6177 108.832 61.9362 106.191" stroke="#4DA3F7" stroke-miterlimit="10" stroke-linejoin="round"/>
<path d="M65.7753 106.159C65.7753 106.159 65.7219 115.414 66.4847 116.219C67.2474 117.024 69.408 117.39 69.408 117.39" stroke="#4DA3F7" stroke-miterlimit="10" stroke-linejoin="round"/>
<path d="M70.7099 195.741C70.7099 195.741 69.7417 137.679 70.7419 127.035" stroke="#4DA3F7" stroke-miterlimit="10" stroke-linejoin="round"/>
<path d="M86.3821 74.6522C84.5546 71.9328 74.5134 65.8431 74.5134 65.8431C71.3552 65.449 67.7495 65.5365 67.7495 65.5365C67.7495 65.5365 63.6729 69.9324 60.2284 74.8592C57.3585 77.7291 57.033 81.3201 57.0915 84.2866C57.1749 88.5106 58.6383 94.6049 58.9836 101.279C64.7397 103.371 75.5533 102.893 83.7527 100.541C83.7527 100.541 88.2096 77.3716 86.3821 74.6522Z" fill="#FC9854"/>
<path d="M67.7491 65.5366C67.7491 65.5366 62.1888 64.3401 53.9136 68.3648C47.677 71.3985 46.6493 72.1058 46.6493 72.1058L51.4672 83.9343L64.9621 78.0307" fill="#FC9854"/>
<path d="M65.4681 65.3707C64.5401 66.4411 61.0798 67.6935 60.6542 67.4809C60.2286 67.2679 61.5354 66.2148 61.69 65.9376C60.6176 65.9834 59.6743 66.1868 58.9741 66.4299C58.0975 66.735 57.1512 66.9714 56.2893 67.3172C56.8614 66.4782 58.2119 65.4063 58.7336 65.1632C60.7671 64.2164 63.4656 64.1747 65.4681 65.3707Z" fill="#C96947"/>
<path d="M80.2532 80.7299L88.9224 88.3491L97.2383 79.6204C97.2383 79.6204 93.0849 75.407 89.227 71.5491C81.65 63.9721 74.5133 65.8433 74.5133 65.8433" fill="#FC9854"/>
<path d="M86.1264 85.892L80.9194 81.3155" stroke="#AF3519" stroke-miterlimit="10" stroke-linejoin="round"/>
<path d="M57.2822 81.2037C57.2822 81.2037 57.7551 77.3325 60.2284 74.8592" stroke="#AF3519" stroke-miterlimit="10" stroke-linejoin="round"/>
<path d="M48.6378 71.005L53.3327 83.1182" stroke="#AF3519" stroke-miterlimit="10" stroke-linejoin="round"/>
<path d="M87.5452 87.139L95.6683 78.0314" stroke="#AF3519" stroke-miterlimit="10" stroke-linejoin="round"/>
<path d="M66.9449 65.5283C66.9449 65.5283 65.6177 68.8177 69.9811 69.0862C75.0889 69.4009 75.5948 65.8018 75.5948 65.8018" stroke="#AF3519" stroke-miterlimit="10" stroke-linejoin="round"/>
<path d="M68.0611 60.9617L67.7184 65.9937C67.7184 65.9937 67.338 68.0851 70.5761 68.0851C73.4958 68.0851 74.5133 65.8432 74.5133 65.8432L73.6916 58.5082" fill="#FFB9A9"/>
<path d="M66.2483 49.3869C64.8525 52.4409 62.8297 58.8617 66.2402 61.3645C67.0253 61.9411 68.3163 62.0189 69.6887 61.6426C72.6624 60.8265 74.7497 58.8179 75.4901 56.8933C76.4201 54.4759 70.9778 44.508 66.2483 49.3869Z" fill="#FFB9A9"/>
<path d="M66.4258 58.737L69.8495 58.5082C69.8495 58.5082 69.3242 60.2203 67.8348 60.2203C66.3455 60.2203 66.4258 58.737 66.4258 58.737Z" fill="white"/>
<path d="M78.8522 50.63C79.29 51.1523 79.8412 51.553 80.6299 51.7935C81.8915 52.1784 82.6867 52.4555 83.3991 53.6657C84.1105 54.8749 83.9636 56.9587 85.2882 57.5694C86.5416 58.1476 88.0874 57.4937 88.9224 58.9495C88.4845 60.6656 85.5424 65.2283 84.412 66.7904C83.4383 65.8161 83.0056 65.6148 81.953 65.39C81.1221 65.2125 80.2389 65.3336 79.4309 65.0712C78.6946 64.8322 78.0829 64.2861 77.6654 63.6342C77.3944 63.2106 77.1935 62.7352 76.8488 62.3691C76.357 61.8468 75.6391 61.6124 74.946 61.4289C74.5087 61.3129 74.0571 61.2046 73.6844 60.9478C72.8337 60.3615 72.6176 59.369 72.5647 58.4252C72.4961 57.2135 72.5057 56.0078 72.5088 54.7941C72.5118 53.4888 71.2737 52.8684 70.5124 52.0182C70.4118 51.9053 69.0119 49.9675 69.2717 49.8698C68.0493 50.3295 65.7982 51.1472 64.8418 52.037C63.7566 49.547 65.7347 46.6023 68.598 46.7762C69.0119 46.8016 69.8133 46.2763 70.274 46.1863C70.8648 46.0704 71.4715 46.0389 72.072 46.0755C73.2944 46.1502 74.5021 46.5087 75.579 47.0899C76.4247 47.546 77.5027 48.23 77.9354 49.1239C78.2105 49.6929 78.4932 50.2019 78.8522 50.63Z" fill="#2D2D2D"/>
<path d="M67.6359 54.6677C67.6359 54.6677 66.0702 56.5608 66.2721 57.0586C66.4735 57.5565 67.5906 57.4909 67.5906 57.4909" stroke="#EA8F86" stroke-miterlimit="10" stroke-linejoin="round"/>
<path d="M69.9356 55.0373C69.9503 55.0688 69.9636 55.1024 69.9742 55.1344C70.052 55.3729 69.9966 55.5814 69.9651 55.8214C69.9147 56.2038 69.2822 56.0731 69.3732 55.6866C69.4286 55.4492 69.4978 55.1959 69.6259 54.9864C69.752 54.78 69.8659 54.8898 69.9356 55.0373Z" fill="#031628"/>
<path d="M66.1736 53.9351C66.1822 53.9692 66.1884 54.0042 66.1924 54.0378C66.2234 54.2865 66.1283 54.4807 66.0511 54.71C65.928 55.0756 65.3326 54.825 65.4963 54.4634C65.597 54.2412 65.7134 54.0063 65.8797 53.8253C66.0434 53.6468 66.1334 53.777 66.1736 53.9351Z" fill="#031628"/>
<path d="M71.4423 54.9848C71.4423 54.9848 71.4835 54.8063 71.424 54.5205C71.3661 54.2464 71.1769 53.9022 70.8876 53.651C70.5972 53.4029 70.2118 53.2645 69.9148 53.2844C69.7669 53.2874 69.6484 53.3398 69.5741 53.3708C69.4999 53.413 69.4653 53.4435 69.4653 53.4435C69.4653 53.4435 69.5152 53.4578 69.5874 53.472C69.6611 53.4862 69.7577 53.532 69.8625 53.5808C70.073 53.6835 70.3186 53.8524 70.5474 54.0497C70.7762 54.2454 70.9908 54.4666 71.155 54.6532C71.2293 54.7453 71.3152 54.821 71.3574 54.8892C71.4073 54.9512 71.4423 54.9848 71.4423 54.9848Z" fill="#031628"/>
<path d="M67.2616 53.0065C67.2616 53.0065 67.2555 52.9689 67.2357 52.9114C67.2169 52.8631 67.1665 52.7614 67.0857 52.6892C66.9275 52.5255 66.6214 52.4228 66.3316 52.4543C66.0407 52.4843 65.7799 52.6379 65.6446 52.8057C65.5068 52.976 65.486 53.125 65.486 53.125C65.486 53.125 65.5251 53.1199 65.5816 53.1052C65.6344 53.0858 65.7204 53.0782 65.8053 53.0604C65.9792 53.0274 66.1856 52.9938 66.3865 52.975C66.5858 52.9526 66.7826 52.9414 66.9489 52.9562C67.1101 52.9577 67.2621 53.0131 67.2616 53.0065Z" fill="#031628"/>
<path d="M72.1353 60.7213C72.1353 60.7213 70.4608 62.0327 67.988 62.0327" stroke="#EA8F86" stroke-miterlimit="10" stroke-linejoin="round"/>
<path d="M72.0598 56.5385C72.5052 55.344 73.7383 55.7315 74.0424 56.032C74.2616 56.2486 74.3165 56.5822 74.3063 56.8903C74.2814 57.6627 73.9031 58.4163 73.2995 58.8984C73.0834 59.0708 72.8337 59.2121 72.5601 59.2513C71.7918 59.3616 71.3871 58.7306 71.4659 58.0894" fill="#FFB9A9"/>
<path d="M188.402 0.999985H110.304C101.006 0.999985 93.4673 8.53836 93.4673 17.8371C93.4673 24.2289 97.0282 29.7882 102.275 32.6403C101.023 35.4833 98.3661 37.1461 96.5996 37.9118C99.1731 38.0456 103.597 37.4262 106.039 34.1282C107.401 34.4836 108.83 34.6743 110.304 34.6743H130.259C129.662 36.785 128.383 38.4986 127.375 39.5436C129.302 38.8566 132.13 37.2859 133.708 34.6743H161.911C163.489 37.2859 166.317 38.8566 168.245 39.5436C167.237 38.4986 165.958 36.785 165.361 34.6743H188.402C188.927 34.6743 189.445 34.6473 189.959 34.6C192.458 37.4852 196.574 38.039 199.02 37.9118C197.495 37.2508 195.303 35.9226 193.927 33.7422C200.511 31.455 205.239 25.2001 205.239 17.8371C205.239 8.53836 197.701 0.999985 188.402 0.999985Z" fill="white"/>
<path d="M188.402 0.999986H110.304C101.006 0.999986 93.4673 8.53836 93.4673 17.8371C93.4673 24.2289 97.0282 29.7882 102.275 32.6403C101.023 35.4833 98.3661 37.1461 96.5996 37.9118C99.1731 38.0456 103.597 37.4262 106.039 34.1282C107.401 34.4836 108.83 34.6743 110.304 34.6743H130.259C129.662 36.785 128.383 38.4986 127.375 39.5436C129.302 38.8566 132.13 37.2859 133.708 34.6743H161.911C163.489 37.2859 166.317 38.8566 168.245 39.5436C167.237 38.4986 165.958 36.785 165.361 34.6743H188.402C188.927 34.6743 189.445 34.6473 189.959 34.6C192.458 37.4852 196.574 38.039 199.02 37.9118C197.495 37.2508 195.303 35.9226 193.927 33.7422C200.511 31.455 205.239 25.2001 205.239 17.8371C205.239 8.53836 197.701 0.999986 188.402 0.999986Z" stroke="#99BFE3" stroke-width="1.33333" stroke-miterlimit="10" stroke-linejoin="round"/>
<path d="M110.635 18.7954L111.664 13.3574H113.233L111.538 21H109.952L108.708 15.8875L107.464 21H105.879L104.184 13.3574H105.753L106.787 18.7849L108.047 13.3574H109.38L110.635 18.7954ZM116.435 21.105C115.602 21.105 114.923 20.8495 114.398 20.3386C113.877 19.8277 113.616 19.1471 113.616 18.2968V18.1498C113.616 17.5794 113.726 17.0702 113.947 16.6223C114.167 16.1709 114.479 15.8245 114.881 15.583C115.287 15.3381 115.749 15.2156 116.267 15.2156C117.044 15.2156 117.654 15.4605 118.099 15.9504C118.547 16.4403 118.771 17.135 118.771 18.0343V18.6537H115.154C115.203 19.0246 115.35 19.3221 115.595 19.546C115.844 19.77 116.157 19.882 116.535 19.882C117.119 19.882 117.576 19.6702 117.905 19.2468L118.65 20.0814C118.423 20.4034 118.115 20.6553 117.726 20.8373C117.338 21.0157 116.907 21.105 116.435 21.105ZM116.262 16.4438C115.961 16.4438 115.716 16.5453 115.527 16.7483C115.341 16.9513 115.222 17.2417 115.17 17.6196H117.28V17.4989C117.273 17.163 117.182 16.904 117.007 16.722C116.832 16.5366 116.584 16.4438 116.262 16.4438ZM121.238 21H119.716V12.9375H121.238V21ZM124.854 19.882C125.134 19.882 125.362 19.805 125.537 19.651C125.712 19.497 125.803 19.2923 125.81 19.0369H127.232C127.229 19.4218 127.124 19.7752 126.917 20.0972C126.711 20.4156 126.427 20.6641 126.067 20.8425C125.71 21.0175 125.315 21.105 124.881 21.105C124.069 21.105 123.428 20.8478 122.959 20.3334C122.491 19.8155 122.256 19.1016 122.256 18.1918V18.092C122.256 17.2172 122.489 16.5191 122.954 15.9977C123.42 15.4763 124.058 15.2156 124.87 15.2156C125.58 15.2156 126.149 15.4185 126.576 15.8245C127.006 16.2269 127.225 16.764 127.232 17.4359H125.81C125.803 17.142 125.712 16.904 125.537 16.722C125.362 16.5366 125.131 16.4438 124.844 16.4438C124.49 16.4438 124.223 16.5733 124.041 16.8323C123.862 17.0877 123.773 17.5042 123.773 18.0815V18.239C123.773 18.8234 123.862 19.2433 124.041 19.4988C124.219 19.7542 124.49 19.882 124.854 19.882ZM127.862 18.1078C127.862 17.5444 127.971 17.0422 128.188 16.6013C128.404 16.1604 128.716 15.8192 129.122 15.5778C129.531 15.3363 130.005 15.2156 130.544 15.2156C131.311 15.2156 131.935 15.45 132.418 15.9189C132.905 16.3879 133.176 17.0247 133.232 17.8296L133.242 18.218C133.242 19.0894 132.999 19.7892 132.513 20.3176C132.026 20.8425 131.374 21.105 130.555 21.105C129.736 21.105 129.082 20.8425 128.592 20.3176C128.105 19.7927 127.862 19.0789 127.862 18.176V18.1078ZM129.379 18.218C129.379 18.7569 129.481 19.1698 129.683 19.4568C129.886 19.7402 130.177 19.882 130.555 19.882C130.922 19.882 131.209 19.742 131.416 19.462C131.622 19.1786 131.725 18.7272 131.725 18.1078C131.725 17.5794 131.622 17.17 131.416 16.8795C131.209 16.5891 130.919 16.4438 130.544 16.4438C130.173 16.4438 129.886 16.5891 129.683 16.8795C129.481 17.1665 129.379 17.6126 129.379 18.218ZM135.599 15.3206L135.646 15.9557C136.049 15.4623 136.593 15.2156 137.279 15.2156C138.01 15.2156 138.512 15.5043 138.785 16.0817C139.184 15.5043 139.753 15.2156 140.491 15.2156C141.107 15.2156 141.566 15.3958 141.866 15.7562C142.167 16.1132 142.318 16.6521 142.318 17.3729V21H140.796V17.3782C140.796 17.0562 140.733 16.8218 140.607 16.6748C140.481 16.5243 140.259 16.4491 139.94 16.4491C139.485 16.4491 139.17 16.6661 138.995 17.1L139 21H137.484V17.3834C137.484 17.0545 137.419 16.8165 137.289 16.6696C137.16 16.5226 136.939 16.4491 136.628 16.4491C136.198 16.4491 135.886 16.6276 135.694 16.9845V21H134.177V15.3206H135.599ZM146.102 21.105C145.27 21.105 144.591 20.8495 144.066 20.3386C143.544 19.8277 143.284 19.1471 143.284 18.2968V18.1498C143.284 17.5794 143.394 17.0702 143.614 16.6223C143.835 16.1709 144.146 15.8245 144.549 15.583C144.955 15.3381 145.417 15.2156 145.934 15.2156C146.711 15.2156 147.322 15.4605 147.766 15.9504C148.214 16.4403 148.438 17.135 148.438 18.0343V18.6537H144.822C144.871 19.0246 145.018 19.3221 145.263 19.546C145.511 19.77 145.824 19.882 146.202 19.882C146.787 19.882 147.243 19.6702 147.572 19.2468L148.318 20.0814C148.09 20.4034 147.782 20.6553 147.394 20.8373C147.005 21.0157 146.575 21.105 146.102 21.105ZM145.929 16.4438C145.628 16.4438 145.383 16.5453 145.194 16.7483C145.009 16.9513 144.89 17.2417 144.837 17.6196H146.948V17.4989C146.941 17.163 146.85 16.904 146.675 16.722C146.5 16.5366 146.251 16.4438 145.929 16.4438ZM153.797 13.9243V15.3206H154.769V16.4333H153.797V19.2678C153.797 19.4778 153.838 19.6283 153.918 19.7192C153.999 19.8102 154.153 19.8557 154.38 19.8557C154.548 19.8557 154.697 19.8435 154.826 19.819V20.9685C154.529 21.0595 154.223 21.105 153.908 21.105C152.844 21.105 152.302 20.5678 152.281 19.4935V16.4333H151.451V15.3206H152.281V13.9243H153.797ZM155.22 18.1078C155.22 17.5444 155.328 17.0422 155.545 16.6013C155.762 16.1604 156.074 15.8192 156.48 15.5778C156.889 15.3363 157.363 15.2156 157.902 15.2156C158.669 15.2156 159.293 15.45 159.776 15.9189C160.263 16.3879 160.534 17.0247 160.59 17.8296L160.6 18.218C160.6 19.0894 160.357 19.7892 159.871 20.3176C159.384 20.8425 158.732 21.105 157.913 21.105C157.094 21.105 156.439 20.8425 155.95 20.3176C155.463 19.7927 155.22 19.0789 155.22 18.176V18.1078ZM156.737 18.218C156.737 18.7569 156.838 19.1698 157.041 19.4568C157.244 19.7402 157.535 19.882 157.913 19.882C158.28 19.882 158.567 19.742 158.774 19.462C158.98 19.1786 159.083 18.7272 159.083 18.1078C159.083 17.5794 158.98 17.17 158.774 16.8795C158.567 16.5891 158.277 16.4438 157.902 16.4438C157.531 16.4438 157.244 16.5891 157.041 16.8795C156.838 17.1665 156.737 17.6126 156.737 18.218ZM166.705 17.9346L165.886 18.8164V21H164.311V13.3574H165.886V16.8218L166.579 15.8717L168.526 13.3574H170.463L167.749 16.7535L170.542 21H168.668L166.705 17.9346ZM174.326 21C174.256 20.8635 174.206 20.6938 174.174 20.4908C173.807 20.9003 173.329 21.105 172.741 21.105C172.185 21.105 171.723 20.944 171.355 20.6221C170.992 20.3001 170.81 19.8942 170.81 19.4043C170.81 18.8024 171.032 18.3405 171.476 18.0186C171.924 17.6966 172.57 17.5339 173.413 17.5304H174.111V17.205C174.111 16.9425 174.043 16.7325 173.906 16.5751C173.774 16.4176 173.562 16.3389 173.271 16.3389C173.016 16.3389 172.815 16.4001 172.668 16.5226C172.524 16.6451 172.453 16.813 172.453 17.0265H170.936C170.936 16.6976 171.037 16.3931 171.24 16.1132C171.443 15.8332 171.73 15.6145 172.101 15.457C172.472 15.2961 172.888 15.2156 173.35 15.2156C174.05 15.2156 174.605 15.3923 175.014 15.7457C175.427 16.0957 175.633 16.5891 175.633 17.226V19.6877C175.637 20.2266 175.712 20.6343 175.859 20.9108V21H174.326ZM173.072 19.9449C173.296 19.9449 173.502 19.896 173.691 19.798C173.88 19.6965 174.02 19.5618 174.111 19.3938V18.4175H173.544C172.785 18.4175 172.381 18.6799 172.332 19.2048L172.327 19.2941C172.327 19.483 172.393 19.6388 172.526 19.7612C172.659 19.8837 172.841 19.9449 173.072 19.9449ZM178.195 15.3206L178.242 15.9767C178.648 15.4693 179.192 15.2156 179.875 15.2156C180.477 15.2156 180.924 15.3923 181.218 15.7457C181.512 16.0992 181.663 16.6276 181.67 17.3309V21H180.153V17.3677C180.153 17.0457 180.083 16.813 179.943 16.6696C179.803 16.5226 179.57 16.4491 179.245 16.4491C178.818 16.4491 178.498 16.6311 178.284 16.995V21H176.767V15.3206H178.195ZM184.567 19.777H187.344V21H182.63V20.0762L185.302 16.5488H182.709V15.3206H187.26V16.2181L184.567 19.777ZM191.585 21C191.515 20.8635 191.464 20.6938 191.433 20.4908C191.066 20.9003 190.588 21.105 190 21.105C189.444 21.105 188.982 20.944 188.614 20.6221C188.25 20.3001 188.068 19.8942 188.068 19.4043C188.068 18.8024 188.291 18.3405 188.735 18.0186C189.183 17.6966 189.829 17.5339 190.672 17.5304H191.37V17.205C191.37 16.9425 191.302 16.7325 191.165 16.5751C191.032 16.4176 190.821 16.3389 190.53 16.3389C190.275 16.3389 190.073 16.4001 189.927 16.5226C189.783 16.6451 189.711 16.813 189.711 17.0265H188.194C188.194 16.6976 188.296 16.3931 188.499 16.1132C188.702 15.8332 188.989 15.6145 189.36 15.457C189.731 15.2961 190.147 15.2156 190.609 15.2156C191.309 15.2156 191.863 15.3923 192.273 15.7457C192.686 16.0957 192.892 16.5891 192.892 17.226V19.6877C192.896 20.2266 192.971 20.6343 193.118 20.9108V21H191.585ZM190.331 19.9449C190.555 19.9449 190.761 19.896 190.95 19.798C191.139 19.6965 191.279 19.5618 191.37 19.3938V18.4175H190.803C190.044 18.4175 189.64 18.6799 189.591 19.2048L189.585 19.2941C189.585 19.483 189.652 19.6388 189.785 19.7612C189.918 19.8837 190.1 19.9449 190.331 19.9449Z" fill="#4DA3F7"/>
</svg>
